<?xml version="1.0" standalone="no"?>
<!DOCTYPE svg PUBLIC "-//W3C//DTD SVG 20010904//EN"
 "http://www.w3.org/TR/2001/REC-SVG-20010904/DTD/svg10.dtd">
<svg version="1.0" xmlns="http://www.w3.org/2000/svg"
 width="1000.000000pt" height="1000.000000pt" viewBox="0 0 1000.000000 1000.000000"
 preserveAspectRatio="xMidYMid meet">
<metadata>
Created by potrace 1.14, written by Peter Selinger 2001-2017
</metadata>
<g transform="translate(0.000000,1000.000000) scale(0.100000,-0.100000)"
fill="#000000" stroke="none">
<path d="M3734 9988 c-5 -7 -2 -8 7 -3 10 5 11 5 4 -3 -13 -13 -56 -19 -73 -8
-7 4 -11 4 -10 -1 2 -4 -1 -9 -7 -11 -5 -2 -13 -10 -18 -17 -4 -8 -13 -12 -21
-9 -7 3 -19 -2 -26 -11 -7 -8 -21 -15 -31 -15 -10 0 -21 -4 -24 -10 -3 -5 -12
-10 -18 -10 -7 0 -6 4 3 10 10 7 11 10 2 10 -7 0 -15 -6 -18 -14 -3 -9 -12
-12 -22 -9 -12 5 -14 2 -9 -11 4 -10 3 -15 -3 -11 -11 7 -48 -13 -71 -38 -11
-12 -18 -14 -21 -6 -2 7 -17 -2 -36 -20 -18 -18 -32 -28 -32 -22 0 6 -9 3 -19
-6 -11 -9 -17 -21 -14 -27 4 -6 -2 -4 -13 4 -10 8 -16 11 -12 6 4 -5 1 -15 -7
-22 -17 -17 -28 -18 -20 -1 4 6 0 4 -8 -5 -8 -10 -22 -18 -32 -18 -11 0 -15
-5 -12 -14 4 -10 1 -13 -9 -9 -7 3 -14 0 -14 -7 0 -6 -4 -8 -10 -5 -5 3 -10
-1 -10 -10 0 -9 -5 -13 -10 -10 -6 4 -10 3 -9 -2 5 -28 -4 -41 -32 -47 -20 -4
-28 -10 -23 -18 5 -7 2 -9 -9 -5 -11 4 -15 1 -12 -13 3 -14 -1 -17 -12 -13
-13 5 -15 2 -10 -11 4 -10 3 -15 -3 -11 -6 3 -10 1 -10 -5 0 -6 -4 -9 -9 -5
-6 3 -8 -3 -6 -14 2 -11 -3 -22 -11 -25 -8 -3 -14 -15 -14 -26 0 -11 -5 -20
-11 -20 -5 0 -7 -6 -3 -12 5 -10 4 -10 -6 -1 -15 13 -40 -4 -33 -23 2 -6 -7
-18 -21 -27 -16 -11 -24 -24 -21 -37 2 -11 1 -18 -4 -16 -4 3 -13 -4 -20 -16
-7 -11 -8 -17 -3 -14 6 3 8 -2 5 -14 -3 -11 -9 -17 -14 -14 -5 3 -9 0 -9 -6 0
-6 -4 -8 -10 -5 -5 3 -10 0 -10 -9 0 -8 -6 -17 -12 -19 -10 -4 -10 -6 0 -6 10
-1 9 -5 -3 -17 -9 -9 -14 -23 -11 -30 3 -9 0 -11 -11 -7 -12 5 -15 2 -10 -10
4 -10 0 -20 -11 -27 -13 -7 -14 -12 -5 -18 16 -10 5 -54 -11 -45 -6 4 -6 0 2
-9 10 -13 10 -17 -3 -22 -8 -3 -15 -10 -15 -16 0 -6 5 -8 12 -4 13 8 3 -12
-20 -38 -9 -11 -12 -27 -8 -43 4 -16 3 -24 -3 -21 -9 6 -27 -31 -23 -47 1 -4
-7 -25 -18 -47 -19 -37 -18 -45 4 -41 5 1 4 -4 -2 -12 -7 -8 -9 -17 -5 -20 3
-4 0 -7 -8 -7 -12 0 -12 -2 0 -9 12 -8 12 -12 2 -24 -8 -11 -9 -17 -1 -22 8
-5 7 -11 -2 -23 -11 -13 -11 -14 0 -8 16 10 13 -25 -3 -36 -6 -5 -5 -8 4 -8
11 0 11 -3 0 -17 -12 -14 -12 -16 1 -9 8 4 5 -1 -7 -12 -12 -11 -19 -23 -15
-27 4 -5 0 -6 -9 -2 -11 3 -21 -3 -29 -19 -8 -13 -17 -24 -22 -24 -5 0 -6 -5
-2 -11 4 -8 0 -8 -15 0 -17 10 -21 9 -21 -3 0 -10 -7 -13 -20 -11 -13 3 -18 0
-14 -7 5 -7 2 -9 -8 -5 -12 4 -14 1 -11 -14 4 -13 -2 -28 -16 -40 -23 -22 -29
-38 -7 -20 11 9 13 7 11 -12 -2 -20 2 -24 22 -22 13 0 28 7 33 15 8 13 10 13
10 0 0 -12 2 -12 9 -1 5 8 11 9 15 3 4 -7 17 -7 36 -2 20 6 30 5 34 -3 3 -8 5
-8 5 1 1 10 6 10 21 2 15 -8 20 -8 20 2 0 10 2 10 9 -1 7 -11 9 -11 14 0 4 10
6 9 6 -3 1 -10 7 -19 14 -20 6 0 17 -2 23 -2 6 -1 19 -7 28 -15 9 -7 16 -11
16 -7 0 4 12 -1 28 -10 26 -15 26 -15 7 1 -13 11 -15 16 -5 13 8 -3 20 -14 26
-26 6 -12 14 -19 17 -15 4 3 7 -2 7 -13 0 -13 3 -15 8 -6 7 9 14 7 33 -9 13
-12 23 -25 21 -30 -1 -5 4 -8 10 -7 7 2 12 -3 10 -11 -2 -8 3 -11 12 -8 9 4
15 1 13 -6 -1 -7 5 -11 13 -9 11 3 10 -1 -3 -16 -11 -12 -14 -23 -9 -26 14 -8
7 -42 -8 -38 -6 1 -9 -2 -5 -8 3 -5 2 -10 -4 -10 -5 0 -8 -9 -6 -20 2 -11 0
-18 -5 -15 -12 7 -32 -30 -22 -41 4 -5 0 -3 -9 4 -14 10 -16 9 -14 -12 2 -15
-3 -27 -12 -30 -9 -4 -13 -14 -10 -26 3 -11 1 -18 -4 -14 -5 3 -9 0 -9 -6 0
-6 -4 -9 -9 -6 -5 4 -8 -5 -6 -19 1 -15 -3 -25 -11 -25 -7 0 -11 -8 -9 -19 2
-11 -3 -22 -11 -25 -9 -3 -12 -10 -9 -16 3 -5 1 -10 -5 -10 -6 0 -8 -4 -5 -10
3 -5 1 -10 -5 -10 -6 0 -8 -5 -4 -12 4 -7 3 -8 -4 -4 -6 3 -16 -3 -22 -14 -6
-11 -16 -17 -22 -14 -7 5 -9 2 -5 -8 4 -11 -1 -18 -15 -21 -13 -4 -19 -11 -15
-21 3 -8 -1 -17 -10 -20 -9 -4 -13 -9 -10 -13 4 -3 -1 -12 -11 -20 -9 -8 -10
-11 -3 -7 9 5 6 -5 -7 -23 -12 -17 -22 -39 -22 -48 0 -9 -4 -13 -10 -10 -6 3
-7 -1 -4 -9 3 -9 1 -16 -6 -16 -6 0 -8 -4 -5 -10 3 -5 1 -10 -5 -10 -6 0 -8
-11 -6 -23 3 -15 -3 -29 -14 -37 -14 -10 -16 -18 -10 -31 7 -12 5 -19 -6 -23
-14 -5 -14 -8 0 -27 10 -16 12 -28 5 -46 -6 -16 -5 -22 1 -18 17 10 11 -7 -7
-22 -10 -8 -13 -12 -7 -9 7 3 14 -1 18 -9 3 -8 0 -15 -6 -15 -7 0 -6 -5 2 -15
8 -9 8 -15 2 -15 -7 0 -8 -10 -2 -30 5 -16 5 -29 2 -29 -22 3 -29 -4 -27 -26
2 -14 0 -23 -3 -21 -4 2 -13 -2 -19 -10 -10 -10 -10 -15 -1 -20 7 -5 3 -10
-13 -16 -19 -7 -21 -11 -9 -18 8 -5 11 -10 7 -10 -5 0 -1 -7 8 -16 12 -12 13
-19 4 -30 -9 -11 -8 -14 2 -14 11 0 11 -2 -1 -10 -9 -6 -11 -13 -5 -17 13 -11
15 -43 3 -43 -7 0 -6 -5 1 -13 8 -10 7 -17 -1 -25 -9 -9 -9 -12 1 -12 11 0 11
-3 0 -17 -12 -15 -12 -16 1 -8 13 8 13 7 1 -8 -10 -13 -10 -17 -1 -17 9 0 10
-3 1 -13 -8 -10 -7 -17 1 -25 9 -9 9 -12 -2 -12 -12 0 -13 -2 -1 -9 9 -6 10
-11 2 -15 -6 -4 -11 -12 -11 -17 0 -6 6 -7 13 -3 8 5 8 3 -2 -9 -7 -9 -17 -15
-20 -12 -12 7 -9 -29 3 -44 8 -11 8 -13 -2 -7 -9 6 -11 -1 -8 -28 3 -27 1 -36
-10 -36 -9 0 -12 -5 -9 -11 4 -6 -1 -17 -11 -25 -11 -9 -13 -13 -4 -9 10 4 10
2 -2 -8 -14 -11 -15 -16 -5 -27 10 -10 8 -12 -8 -6 -16 6 -17 5 -8 -5 9 -9 8
-18 -8 -37 -13 -17 -16 -28 -8 -32 6 -5 3 -9 -10 -13 -23 -6 -29 -27 -8 -27 9
0 8 -3 -2 -9 -9 -6 -10 -14 -5 -22 13 -21 12 -32 -7 -54 -19 -22 -23 -101 -6
-123 7 -9 6 -11 -7 -6 -12 5 -15 2 -10 -10 4 -10 1 -16 -8 -16 -15 0 -17 -48
-3 -71 6 -8 4 -10 -5 -4 -10 6 -12 4 -7 -8 4 -10 2 -16 -5 -14 -12 2 -13 -3
-16 -50 -1 -13 -9 -23 -17 -23 -8 0 -15 -5 -15 -11 0 -5 5 -7 11 -3 6 3 3 -5
-6 -20 -9 -14 -21 -24 -25 -21 -5 3 -11 -4 -15 -15 -4 -11 -9 -18 -13 -16 -10
6 -32 -21 -24 -30 4 -4 1 -4 -6 0 -8 5 -19 1 -28 -10 -9 -11 -13 -13 -9 -4 3
8 -2 5 -11 -7 -9 -13 -23 -23 -30 -23 -8 0 -14 -6 -14 -12 0 -9 -4 -8 -10 2
-9 14 -15 7 -11 -14 1 -5 -7 -6 -19 -3 -11 3 -18 1 -14 -4 3 -5 -2 -9 -10 -9
-9 0 -16 -7 -16 -15 0 -9 -6 -12 -15 -9 -8 4 -15 1 -15 -6 0 -6 -4 -8 -10 -5
-5 3 -10 0 -10 -7 0 -9 -3 -9 -10 2 -7 11 -10 11 -10 2 0 -7 -5 -10 -10 -7 -5
3 -10 1 -10 -5 0 -7 -7 -10 -15 -6 -8 3 -15 1 -15 -5 0 -6 -5 -7 -11 -4 -5 4
-20 -1 -31 -12 -12 -10 -18 -12 -14 -5 4 6 3 12 -2 12 -6 0 -13 -7 -16 -16 -5
-13 -9 -14 -20 -5 -11 9 -15 9 -19 -1 -4 -10 -6 -10 -6 1 -1 11 -4 11 -18 0
-15 -12 -16 -12 -8 1 7 12 6 13 -7 3 -8 -7 -18 -10 -21 -6 -4 3 -7 -2 -7 -13
0 -16 -2 -17 -10 -4 -9 13 -10 13 -10 0 0 -12 -2 -12 -9 -1 -6 10 -13 10 -28
3 -11 -6 -25 -7 -33 -2 -8 5 -21 5 -30 0 -13 -7 -24 1 -48 32 -18 23 -32 38
-32 33 0 -5 10 -20 23 -34 l22 -26 -27 24 c-16 14 -28 31 -28 38 0 8 -4 11
-10 8 -5 -3 -10 1 -10 9 0 8 -5 18 -12 22 -7 5 -8 3 -3 -6 5 -8 4 -11 -3 -6
-6 4 -9 13 -6 21 6 15 -31 57 -42 47 -3 -4 -5 0 -2 8 3 8 -1 21 -9 28 -7 8
-11 18 -8 23 4 5 2 9 -3 9 -12 0 -58 40 -46 40 5 0 1 5 -8 11 -10 5 -18 19
-18 29 0 11 -9 29 -20 40 -12 12 -15 20 -8 21 7 0 4 4 -7 9 -14 6 -15 9 -5 10
12 0 11 4 -4 15 -11 8 -16 15 -12 15 4 0 0 7 -8 16 -9 8 -16 24 -16 35 0 10
-5 19 -11 19 -5 0 -7 5 -4 10 3 6 1 10 -5 10 -6 0 -8 5 -5 10 3 6 1 10 -5 10
-8 0 -7 6 1 21 8 15 8 19 0 15 -6 -4 -11 0 -11 8 0 9 -4 16 -9 16 -5 0 -12 7
-15 16 -3 8 -2 13 3 10 5 -3 12 2 15 11 4 10 4 14 0 11 -14 -14 -33 21 -35 66
-2 28 -7 46 -15 46 -7 0 -10 8 -7 21 4 12 0 25 -8 30 -12 7 -12 9 0 9 7 0 11
6 7 15 -3 10 1 15 12 15 15 0 15 2 2 10 -14 9 -7 14 13 11 5 -1 5 3 2 10 -10
16 -13 89 -3 83 4 -3 8 0 8 6 0 6 4 8 10 5 6 -4 7 1 3 11 -5 13 -3 15 8 9 12
-8 12 -6 0 8 -7 9 -18 14 -25 10 -6 -4 -5 1 3 10 12 15 11 17 -2 17 -10 0 -14
6 -11 14 3 8 0 17 -5 21 -6 3 -9 11 -6 16 4 5 -4 9 -15 9 -14 0 -20 5 -17 13
3 8 -4 12 -22 11 -14 0 -29 4 -33 10 -5 7 -8 7 -8 -2 0 -10 -4 -9 -16 2 -8 9
-20 14 -25 11 -5 -4 -9 -1 -9 4 0 6 -5 11 -11 11 -5 0 -7 -6 -3 -12 4 -7 -2
-5 -13 5 -11 10 -24 17 -29 16 -5 -1 -11 0 -14 1 -14 7 -89 6 -84 -1 3 -5 -6
-5 -19 0 -17 7 -29 6 -37 -2 -10 -9 -11 -9 -6 0 5 9 2 11 -8 7 -9 -3 -14 -11
-13 -17 1 -7 -4 -11 -10 -10 -7 2 -13 -4 -13 -13 0 -10 -6 -14 -15 -10 -8 3
-14 2 -12 -2 1 -4 -1 -7 -5 -7 -4 0 -14 -9 -23 -20 l-17 -20 6 20 6 20 -15
-20 c-9 -11 -19 -20 -23 -20 -19 -1 -52 -27 -46 -37 4 -6 3 -8 -4 -4 -6 3 -14
2 -17 -4 -4 -6 -20 -9 -35 -6 -20 3 -27 0 -24 -9 6 -16 -23 -28 -32 -13 -4 7
-9 6 -15 -3 -7 -11 -9 -11 -9 -1 0 10 -5 10 -20 2 -14 -8 -20 -8 -20 0 0 8 -6
8 -20 0 -15 -8 -20 -8 -20 2 0 10 -2 10 -9 0 -7 -11 -9 -10 -14 3 -6 14 -9 14
-32 -1 -24 -16 -25 -16 -18 1 5 15 3 17 -11 12 -9 -4 -15 -3 -12 2 3 5 -1 11
-9 15 -8 3 -15 1 -15 -4 0 -6 -3 -9 -7 -9 -27 4 -42 -4 -49 -28 -4 -16 -6 -32
-5 -36 1 -5 -2 -6 -7 -3 -4 2 -14 -5 -21 -16 -11 -18 -11 -20 3 -15 19 8 20 3
4 -15 -7 -8 -19 -24 -26 -37 -11 -19 -11 -22 0 -16 10 6 10 5 1 -5 -6 -7 -9
-19 -6 -26 3 -8 0 -14 -5 -14 -17 0 -26 -41 -11 -51 11 -7 11 -9 1 -9 -7 0
-10 -5 -7 -10 4 -6 3 -10 -2 -9 -23 4 -29 -3 -25 -29 2 -17 -2 -33 -11 -40 -9
-8 -13 -25 -10 -47 2 -21 -1 -35 -7 -35 -6 0 -9 -4 -6 -9 3 -5 -2 -12 -11 -15
-15 -6 -15 -8 -3 -16 13 -9 13 -10 0 -10 -13 0 -13 -2 -1 -9 10 -7 12 -13 5
-23 -12 -15 -12 -28 -1 -45 5 -8 4 -13 -3 -13 -6 0 -8 -5 -4 -12 5 -8 2 -9
-11 -4 -14 5 -16 4 -7 -7 7 -8 9 -17 5 -21 -4 -4 -9 -19 -10 -34 -3 -21 -1
-24 7 -12 6 9 10 10 10 3 0 -6 -5 -15 -10 -18 -6 -4 -8 -11 -5 -16 10 -15 -5
-50 -17 -43 -7 5 -9 0 -6 -14 4 -13 1 -22 -5 -23 -7 0 -3 -4 8 -9 15 -7 16 -9
4 -9 -9 -1 -22 -8 -29 -16 -10 -12 -10 -18 1 -32 8 -9 9 -14 3 -10 -9 5 -12
-58 -13 -241 0 -173 3 -242 10 -229 6 9 14 15 18 12 5 -2 11 4 14 15 3 11 1
18 -4 14 -5 -3 -9 15 -9 40 0 39 3 45 20 43 11 -1 20 -6 20 -12 0 -5 5 -3 10
5 5 8 10 11 10 6 0 -5 8 -2 17 5 11 10 14 10 9 2 -5 -9 0 -13 14 -13 12 0 18
4 15 10 -4 6 2 7 17 2 13 -5 33 -7 45 -6 13 0 23 -4 23 -10 0 -7 3 -7 8 -1 14
19 68 3 55 -17 -2 -5 0 -8 5 -8 10 0 9 -30 -1 -47 -4 -6 -1 -14 5 -17 7 -3 4
-4 -7 -3 -11 1 -23 7 -27 12 -4 6 -8 1 -8 -9 0 -20 0 -20 -15 0 -9 12 -14 14
-15 6 0 -7 -5 -10 -10 -7 -6 3 -10 1 -10 -5 0 -6 -5 -8 -12 -4 -7 4 -2 -7 11
-24 20 -29 32 -37 46 -29 2 1 10 -7 18 -17 8 -11 19 -16 25 -12 7 4 12 2 12
-4 0 -6 3 -9 8 -7 9 6 33 -19 25 -27 -4 -3 1 -6 11 -6 9 0 14 -4 11 -10 -3 -5
1 -10 9 -10 9 0 16 -6 16 -12 0 -9 4 -8 10 2 8 12 10 12 10 1 0 -11 3 -11 16
-1 13 11 16 10 21 -8 3 -12 9 -19 14 -16 9 5 11 -6 11 -61 0 -16 5 -33 12 -37
8 -6 8 -8 -1 -8 -6 0 -11 -9 -10 -20 1 -11 7 -20 13 -20 7 0 15 -7 18 -16 3
-9 2 -12 -5 -8 -6 3 -5 -3 3 -15 7 -12 16 -21 20 -21 5 0 8 -5 8 -11 0 -5 -5
-7 -12 -3 -7 4 -8 3 -4 -4 4 -7 14 -12 22 -12 11 0 12 -4 4 -19 -8 -16 -5 -23
15 -39 26 -20 35 -39 13 -26 -7 4 -5 -2 5 -13 14 -16 15 -23 6 -29 -8 -5 -10
-3 -4 6 5 8 4 11 -3 6 -12 -7 -5 -36 9 -36 5 0 9 -7 9 -16 0 -9 5 -12 13 -8 7
5 7 1 -3 -12 -8 -10 -10 -16 -6 -12 12 10 57 -43 51 -59 -2 -7 2 -13 9 -13 18
0 30 -31 16 -40 -8 -5 -7 -12 4 -23 9 -8 16 -20 16 -26 0 -5 10 -17 22 -25 15
-11 18 -16 8 -16 -13 0 -13 -2 0 -10 13 -9 13 -10 0 -10 -13 0 -13 -1 0 -10 8
-5 15 -15 15 -22 1 -7 7 -12 15 -10 10 1 8 -3 -4 -13 -13 -10 -15 -15 -6 -15
7 0 11 -3 7 -6 -3 -4 2 -14 11 -23 10 -9 12 -12 5 -7 -10 6 -12 4 -7 -8 3 -9
11 -16 18 -16 6 0 4 -5 -4 -10 -11 -7 -11 -10 -2 -10 7 0 10 -4 7 -10 -3 -5
-1 -10 4 -10 6 0 11 -9 11 -19 0 -10 7 -22 16 -25 9 -4 14 -9 11 -13 -4 -3 -2
-14 4 -24 7 -14 6 -19 -3 -19 -8 -1 -7 -5 4 -14 10 -7 15 -16 11 -19 -3 -4 -1
-7 5 -7 7 0 12 -5 12 -11 0 -5 -6 -7 -12 -4 -7 4 -5 0 5 -8 14 -11 15 -16 5
-20 -8 -4 -6 -6 5 -6 15 -1 16 -5 7 -21 -8 -16 -8 -20 2 -18 7 2 12 -2 11 -9
-2 -7 3 -10 10 -7 9 3 12 -7 10 -36 -1 -22 1 -38 6 -36 4 3 13 -4 20 -16 7
-11 8 -17 2 -13 -19 11 -12 -7 11 -26 14 -13 16 -19 7 -19 -8 0 -10 -3 -4 -8
16 -11 19 -46 3 -36 -10 6 -11 5 -1 -8 7 -8 10 -18 6 -22 -4 -3 1 -12 11 -19
10 -7 17 -20 16 -28 -5 -32 1 -49 18 -49 14 0 15 -2 2 -10 -10 -6 -11 -10 -2
-10 6 0 12 -7 12 -16 0 -8 4 -13 9 -10 4 3 8 -4 7 -17 -1 -13 4 -21 12 -19 8
1 11 -2 7 -8 -3 -5 0 -10 7 -10 10 0 10 -2 -1 -9 -11 -7 -11 -9 0 -13 12 -4
12 -8 1 -20 -10 -13 -10 -17 0 -21 10 -4 9 -6 -2 -6 -9 -1 -6 -7 10 -18 14
-10 29 -17 33 -15 4 1 3 -7 -3 -18 -8 -16 -8 -20 4 -20 8 0 18 -5 22 -12 5 -7
3 -8 -5 -3 -8 4 -7 -2 3 -17 9 -14 13 -28 9 -33 -5 -4 -3 -5 3 -2 11 7 29 -19
26 -36 -1 -4 14 -21 33 -38 30 -27 33 -34 23 -47 -10 -12 -10 -14 -1 -8 9 5
13 0 13 -13 0 -11 13 -30 29 -42 24 -17 28 -27 26 -55 -2 -19 0 -32 4 -30 9 6
42 -31 45 -49 1 -7 8 -20 15 -29 8 -9 11 -19 8 -22 -3 -4 4 -15 16 -26 12 -11
15 -16 7 -12 -13 7 -13 5 -1 -9 9 -12 10 -17 2 -17 -7 0 -5 -9 6 -24 10 -13
21 -22 25 -19 4 2 5 -3 2 -11 -3 -9 -11 -13 -18 -9 -8 5 -8 3 1 -8 10 -12 11
-61 3 -94 -5 -22 1 -36 13 -29 6 4 3 -3 -8 -16 -11 -13 -15 -21 -9 -17 15 9
49 -64 34 -73 -9 -6 -9 -9 0 -15 8 -5 6 -12 -7 -27 -11 -13 -13 -18 -4 -16 7
2 16 -3 19 -11 3 -10 0 -12 -14 -7 -17 7 -17 6 0 -13 15 -16 16 -24 7 -35 -9
-11 -8 -18 5 -30 9 -10 17 -28 17 -42 0 -13 5 -24 11 -24 7 0 8 -3 1 -8 -19
-13 -14 -51 8 -67 16 -11 18 -18 10 -23 -8 -5 -9 -13 -3 -22 5 -9 5 -19 -2
-27 -6 -7 -8 -22 -5 -34 5 -17 3 -18 -11 -7 -13 10 -14 10 -8 0 4 -7 2 -20 -6
-29 -11 -14 -11 -16 1 -9 10 7 12 3 6 -13 -4 -14 -2 -21 7 -21 10 0 10 -2 0
-8 -13 -9 -12 -38 2 -61 6 -10 5 -12 -2 -7 -7 4 -12 1 -12 -9 0 -9 -4 -13 -10
-10 -6 4 -7 -1 -3 -10 3 -10 0 -21 -8 -26 -12 -7 -12 -9 1 -9 13 0 13 -1 0
-10 -10 -6 -11 -10 -2 -10 6 0 12 -5 12 -11 0 -5 -6 -7 -12 -4 -7 4 -4 -1 6
-9 19 -16 19 -16 -5 -16 -19 -1 -21 -2 -8 -10 12 -7 14 -19 9 -60 -6 -44 -4
-50 9 -45 11 3 10 0 -3 -10 -17 -13 -17 -15 -3 -21 10 -3 17 -14 17 -24 0 -10
6 -21 13 -23 8 -4 8 -6 -3 -6 -10 -1 -7 -6 8 -17 12 -8 20 -20 17 -25 -7 -10
18 -39 33 -39 6 0 13 -7 16 -16 3 -8 2 -12 -4 -9 -6 3 -10 2 -10 -3 0 -6 7
-12 15 -16 8 -3 14 -11 13 -18 -2 -8 5 -12 16 -10 10 2 16 -1 12 -6 -3 -5 1
-9 8 -9 8 0 12 7 8 15 -4 11 -2 13 9 7 12 -8 12 -6 0 8 -12 15 -10 18 14 27
33 13 38 13 29 -1 -5 -8 -1 -8 14 0 16 8 21 7 26 -5 3 -8 2 -12 -4 -9 -6 3
-10 1 -10 -4 0 -6 6 -11 13 -11 7 0 8 -3 2 -8 -5 -4 -10 -19 -11 -34 0 -15 2
-25 5 -23 7 8 51 -37 51 -52 0 -8 -5 -11 -12 -8 -7 4 -5 0 5 -8 13 -11 15 -16
5 -19 -10 -4 -10 -9 0 -29 9 -17 11 -18 7 -4 -5 20 -5 20 10 1 12 -16 12 -22
2 -28 -9 -6 -9 -8 1 -8 7 0 10 -4 7 -10 -3 -5 0 -10 8 -10 16 0 30 -24 19 -34
-10 -10 -11 -37 -1 -30 5 3 9 0 9 -6 0 -6 4 -8 10 -5 5 3 10 0 10 -8 0 -7 7
-14 15 -14 8 0 15 4 15 9 0 5 5 6 12 2 7 -5 8 -3 3 5 -13 22 -12 69 1 64 7 -2
20 7 29 21 10 14 21 23 26 20 5 -3 10 1 10 8 1 7 2 20 3 28 0 8 -3 18 -9 22
-6 5 -3 8 6 8 18 0 33 26 23 41 -3 5 0 9 6 9 6 0 16 13 21 30 6 16 14 30 18
30 4 0 7 16 6 35 -1 20 0 33 3 30 3 -2 11 3 18 13 9 13 9 19 1 24 -8 5 -6 8 6
8 10 0 15 5 12 10 -3 5 -1 10 4 10 6 0 10 3 10 8 -4 21 2 32 13 26 8 -5 9 -2
5 9 -3 10 -2 17 4 17 6 0 17 7 25 15 9 9 11 15 4 15 -6 0 -8 5 -4 13 5 7 0 6
-11 -3 -10 -8 -16 -10 -12 -3 4 6 3 14 -3 18 -5 3 -10 1 -10 -5 0 -6 -5 -8
-12 -4 -6 4 -31 7 -54 5 -34 -1 -45 2 -53 18 -14 25 -14 41 -1 21 7 -11 10
-12 10 -2 0 8 -9 16 -20 19 -21 6 -26 18 -11 27 5 3 7 16 3 28 -4 16 -2 19 9
14 8 -4 6 -1 -3 7 -14 11 -15 16 -5 27 10 10 9 11 -3 5 -12 -7 -13 -6 -3 7 7
8 9 19 5 23 -4 5 -2 5 4 2 6 -3 22 0 37 8 15 8 27 11 27 7 0 -4 5 0 10 8 9 13
10 13 10 0 0 -13 1 -13 10 0 5 8 10 10 10 3 0 -6 9 -9 20 -6 11 3 17 9 14 14
-3 5 0 9 6 9 6 0 8 5 4 11 -4 7 4 20 17 31 13 11 18 16 10 12 -9 -4 -12 -2 -9
7 3 9 18 14 41 13 20 -1 34 3 31 8 -9 13 2 9 24 -11 12 -10 22 -24 22 -31 0
-7 8 -18 17 -25 11 -8 17 -28 18 -61 1 -27 6 -49 13 -52 7 -2 10 -8 6 -13 -3
-5 -1 -9 4 -9 5 0 7 -14 4 -30 -2 -17 -9 -30 -14 -30 -6 0 -8 -11 -6 -24 4
-19 1 -23 -11 -18 -9 3 -13 2 -9 -3 4 -4 1 -14 -7 -22 -11 -10 -12 -20 -6 -32
7 -13 5 -22 -8 -33 -14 -12 -18 -27 -16 -62 2 -25 -1 -44 -6 -40 -5 3 -6 -2
-3 -10 4 -9 1 -16 -6 -16 -7 0 -10 -8 -7 -20 3 -11 0 -20 -6 -20 -7 0 -5 -5 3
-10 9 -6 10 -10 3 -10 -8 0 -9 -9 -3 -30 5 -16 6 -30 2 -30 -4 0 -7 -17 -7
-37 0 -22 -5 -37 -11 -36 -12 2 -13 -35 -1 -54 6 -9 2 -13 -10 -13 -10 0 -14
-3 -8 -8 16 -10 17 -54 2 -45 -7 4 -6 0 2 -10 7 -9 11 -17 7 -17 -3 0 -1 -12
4 -26 7 -19 7 -23 -2 -18 -8 5 -9 2 -5 -10 4 -9 3 -15 -1 -12 -4 2 -14 1 -22
-5 -12 -7 -12 -9 -1 -9 10 0 11 -3 2 -13 -7 -10 -7 -17 0 -24 8 -8 8 -17 0
-32 -8 -15 -8 -21 -1 -21 7 0 8 -6 0 -19 -6 -12 -6 -22 -1 -25 10 -7 9 -31 -2
-42 -4 -4 -2 -13 4 -20 7 -9 7 -19 -1 -33 -6 -12 -7 -21 -3 -21 11 0 10 -61
-1 -78 -4 -7 -2 -12 5 -12 9 0 9 -4 -1 -15 -6 -8 -8 -20 -4 -27 6 -9 3 -9 -9
1 -15 12 -17 12 -11 -4 6 -14 4 -16 -7 -10 -9 5 -7 1 3 -11 14 -16 15 -23 6
-32 -9 -9 -9 -12 1 -12 7 0 9 -5 6 -10 -4 -6 -11 -8 -16 -5 -14 9 -11 -2 7
-19 10 -10 11 -16 3 -16 -8 0 -8 -5 2 -17 12 -15 12 -16 -4 -10 -14 5 -16 3
-8 -12 6 -10 7 -21 3 -25 -3 -4 2 -4 12 0 14 5 17 4 12 -4 -4 -7 -3 -12 3 -12
5 0 8 -9 6 -21 -3 -15 0 -19 10 -15 8 3 14 0 12 -7 -1 -7 9 -12 23 -12 19 0
25 5 25 25 0 14 -4 28 -10 32 -6 5 -5 8 2 8 7 0 10 6 7 14 -3 8 0 17 7 22 8 5
10 3 4 -6 -5 -9 -4 -11 4 -6 6 4 9 11 6 16 -3 5 0 12 5 15 8 5 5 14 -6 26 -14
16 -15 19 -3 14 9 -3 22 2 30 11 12 16 12 17 -1 9 -13 -8 -13 -7 -1 8 9 12 10
17 2 17 -9 0 -9 5 0 21 8 15 8 24 1 28 -7 4 -8 12 -2 21 6 8 10 11 10 7 0 -5
10 -1 22 7 22 15 29 63 15 99 -4 11 -1 17 9 17 14 0 14 2 0 16 -19 18 -21 34
-4 34 6 0 9 3 5 6 -3 4 0 13 8 20 8 8 12 21 8 30 -3 8 -1 14 5 12 5 -2 9 0 8
3 0 3 5 13 13 22 10 13 10 17 1 17 -10 0 -10 3 0 15 10 12 10 15 -1 15 -12 0
-12 2 0 9 9 6 10 10 1 13 -7 2 -4 11 9 27 11 13 18 29 14 35 -4 6 1 5 10 -3
13 -11 17 -11 17 -1 0 8 3 10 7 7 3 -4 12 1 20 11 8 9 11 11 7 3 -5 -10 -3
-12 5 -7 7 5 10 10 7 13 -3 3 -1 15 5 26 6 10 7 17 2 14 -5 -4 -10 0 -10 8 0
8 4 12 9 9 7 -5 12 9 10 27 -1 4 12 6 28 5 16 -1 27 2 24 6 -3 4 0 8 6 8 6 0
8 5 4 11 -4 8 0 9 15 4 16 -5 23 -1 33 20 10 22 9 28 -3 36 -12 8 -11 12 5 24
11 8 16 15 11 15 -5 0 0 7 11 16 10 8 13 13 7 9 -7 -3 -13 -1 -13 4 0 6 5 11
11 11 5 0 7 5 3 12 -5 8 -2 9 9 5 11 -4 17 -1 17 7 0 8 6 17 13 19 9 4 8 8 -3
16 -13 9 -13 11 1 11 9 0 22 11 29 25 7 13 17 22 22 19 4 -3 8 2 8 11 0 9 4
13 10 10 6 -3 10 2 10 12 0 15 2 16 10 3 9 -13 10 -13 10 0 0 8 14 26 30 40
29 24 42 48 18 34 -9 -5 -9 -2 1 9 11 14 11 17 0 17 -9 1 -4 9 11 22 14 11 24
25 22 29 -1 5 4 9 12 9 9 0 13 7 11 20 -3 15 2 20 18 20 12 0 18 4 12 8 -5 4
-10 14 -10 22 0 8 5 18 10 22 6 5 6 8 -1 8 -13 0 -13 62 1 72 6 5 6 8 -2 8
-17 0 -7 39 14 57 10 8 12 11 4 7 -10 -5 -12 -3 -5 7 11 18 13 80 2 73 -4 -3
-8 0 -8 6 0 6 -4 9 -9 6 -16 -10 -3 58 14 70 9 7 14 17 11 22 -3 6 2 8 14 5
11 -3 17 -10 13 -16 -4 -6 -1 -7 6 -3 7 5 10 14 7 22 -3 8 -1 14 5 14 6 0 7 5
3 12 -13 21 -11 56 3 51 8 -3 13 3 13 14 0 17 7 20 50 19 28 -1 50 3 50 8 0 5
8 2 17 -5 15 -12 16 -12 8 1 -8 13 -7 13 8 1 15 -12 17 -11 17 4 0 11 5 15 15
11 8 -3 15 -1 15 4 0 5 7 6 17 3 12 -5 14 -3 9 8 -5 10 -4 9 6 -1 7 -9 21 -14
32 -12 11 2 16 0 12 -7 -4 -7 1 -11 13 -11 24 0 37 -18 33 -45 -2 -17 -1 -17
7 -5 7 9 11 10 11 3 0 -7 -8 -17 -17 -22 -11 -6 -13 -11 -5 -11 7 0 10 -5 7
-10 -3 -5 1 -10 10 -10 9 0 13 -4 10 -10 -3 -5 0 -10 7 -10 9 0 9 -3 -2 -10
-13 -9 -13 -10 0 -10 13 0 13 -1 0 -10 -12 -8 -12 -10 -1 -10 10 0 11 -4 3
-12 -6 -7 -10 -16 -9 -20 1 -3 -2 -10 -7 -15 -5 -5 -6 -2 -1 6 5 9 4 12 -3 7
-7 -4 -12 -14 -12 -22 0 -9 5 -12 12 -8 7 4 8 3 4 -5 -4 -6 -12 -9 -17 -6 -5
4 -9 -1 -9 -9 0 -9 -7 -16 -16 -16 -8 0 -13 -4 -9 -9 3 -5 -4 -12 -15 -16 -11
-3 -19 -12 -17 -18 1 -7 -4 -11 -10 -9 -7 1 -13 -7 -13 -18 0 -11 -5 -20 -10
-20 -6 0 -9 -6 -8 -12 2 -7 -3 -12 -9 -10 -7 1 -13 -7 -13 -18 0 -11 -4 -20
-10 -20 -5 0 -7 -7 -4 -15 5 -11 2 -13 -12 -8 -12 4 -15 3 -10 -5 4 -7 2 -12
-6 -12 -10 0 -9 -3 1 -9 12 -8 11 -13 -10 -31 -13 -12 -17 -18 -9 -14 8 4 4
-5 -10 -21 -14 -16 -18 -24 -10 -20 13 8 13 6 1 -8 -7 -9 -11 -26 -8 -36 4
-15 1 -18 -12 -14 -9 4 -13 3 -9 -2 4 -4 3 -14 -3 -22 -9 -10 -8 -13 0 -13 7
0 9 -5 6 -10 -4 -6 -9 -8 -13 -6 -4 2 -13 -2 -20 -10 -7 -8 -9 -14 -4 -14 8 0
9 -19 3 -53 0 -4 -4 -6 -8 -6 -20 3 -23 -3 -12 -23 9 -17 9 -20 -4 -15 -23 9
-38 -12 -26 -36 8 -14 8 -18 0 -12 -7 4 -16 -6 -22 -24 -6 -17 -15 -31 -20
-31 -4 0 -6 -7 -3 -15 4 -8 -1 -17 -10 -21 -9 -3 -13 -10 -10 -15 3 -5 0 -9
-7 -9 -8 0 -7 -5 2 -17 10 -11 10 -14 2 -9 -8 4 -13 2 -13 -4 0 -6 -4 -9 -9
-6 -11 7 -9 -13 3 -33 6 -10 5 -12 -2 -7 -6 4 -17 -2 -24 -13 -8 -14 -16 -17
-24 -10 -8 7 -10 -2 -8 -31 2 -29 -1 -43 -12 -47 -8 -3 -13 -12 -10 -20 3 -8
1 -11 -4 -8 -6 3 -10 2 -10 -4 0 -5 5 -11 12 -13 7 -3 4 -12 -11 -27 -12 -12
-20 -29 -17 -36 2 -7 -4 -16 -17 -19 -18 -5 -20 -8 -7 -16 10 -6 11 -10 3 -10
-7 0 -10 -7 -7 -15 4 -9 0 -15 -9 -15 -9 0 -14 -10 -14 -25 0 -13 4 -22 9 -19
6 4 7 -1 1 -12 -4 -11 -8 -30 -8 -44 0 -14 -7 -34 -17 -44 -12 -13 -15 -23 -8
-31 7 -8 4 -18 -10 -30 -15 -13 -17 -22 -10 -36 8 -14 5 -21 -10 -32 -14 -9
-21 -26 -22 -51 -2 -48 15 -65 30 -31 9 18 9 25 0 25 -6 0 -4 8 5 18 10 10 14
22 10 25 -3 4 -1 7 5 7 7 0 11 3 11 8 -3 19 2 33 10 28 8 -5 23 19 18 29 -1 2
7 11 18 20 11 9 13 14 5 10 -12 -5 -12 -4 1 7 9 7 15 21 13 31 -1 10 2 14 9
10 6 -4 8 0 4 10 -3 9 -3 16 1 15 4 -1 18 2 31 6 16 6 26 4 31 -5 7 -10 11
-10 24 0 13 11 16 11 16 0 0 -11 2 -11 10 1 5 8 10 11 10 6 0 -5 8 -2 17 5 10
8 14 9 10 2 -4 -6 -3 -14 3 -18 5 -3 10 2 11 12 0 10 3 13 6 6 8 -22 22 -14
80 45 31 31 53 51 48 43 -5 -9 -4 -12 3 -8 5 4 9 15 8 25 -2 9 6 25 17 34 11
10 15 18 8 18 -15 0 -10 21 4 23 15 2 33 21 28 30 -2 4 0 7 5 7 11 0 54 36 53
44 -1 3 0 5 2 4 5 -5 35 27 31 33 -2 3 8 11 22 18 14 6 22 16 19 21 -3 6 0 10
7 10 7 0 24 3 37 7 19 5 22 3 16 -8 -7 -11 -6 -12 6 -2 18 15 110 15 128 0 12
-10 13 -9 6 2 -6 11 -4 13 8 8 10 -4 18 1 22 13 3 11 12 19 18 17 7 -1 11 4 9
11 -1 6 6 12 15 13 12 0 14 2 5 6 -10 4 -8 9 7 19 11 8 18 21 15 29 -4 8 -1
15 5 15 6 0 11 7 11 15 0 8 5 15 11 15 5 0 7 5 3 12 -5 7 -2 9 9 5 9 -3 18 -1
21 6 3 9 5 9 5 0 1 -7 8 -13 16 -13 8 0 15 6 16 13 1 6 4 1 8 -13 5 -17 13
-24 27 -22 11 2 15 0 9 -5 -12 -8 -17 -73 -6 -70 12 3 51 -28 51 -41 0 -7 4
-10 10 -7 6 3 10 -4 10 -17 0 -18 2 -20 10 -8 5 8 10 11 11 5 0 -5 2 -20 3
-32 2 -13 -2 -23 -8 -24 -6 0 -2 -4 9 -9 15 -6 16 -9 4 -9 -9 -1 -16 -8 -16
-16 0 -8 4 -12 9 -9 4 3 8 0 8 -5 0 -6 -5 -11 -11 -11 -7 0 -5 -9 5 -25 12
-19 13 -26 3 -32 -17 -11 -19 -46 -1 -39 8 3 14 -1 14 -10 0 -9 5 -12 12 -8 7
5 8 3 2 -7 -5 -8 -9 -21 -9 -29 0 -16 32 -50 47 -50 5 0 7 -4 4 -9 -3 -5 1
-12 10 -15 21 -8 26 -8 21 2 -3 4 21 7 54 7 33 0 59 -4 59 -10 0 -5 5 -3 10 5
5 8 10 10 10 4 0 -13 41 -13 56 1 7 6 9 14 6 19 -3 5 2 7 11 3 12 -4 14 -2 10
10 -5 12 -2 15 9 10 9 -3 24 1 35 9 10 9 11 12 3 8 -8 -4 -12 -4 -8 1 10 11
78 13 78 3 0 -5 9 -4 20 2 11 6 20 17 20 25 0 8 5 15 11 15 8 0 7 6 -2 17 -7
10 -9 15 -5 11 5 -5 16 1 23 12 12 17 12 24 2 38 -11 14 -11 15 1 5 20 -18 27
-16 33 7 3 11 9 20 14 19 21 -4 44 2 39 10 -3 5 1 12 10 15 8 3 12 11 9 16 -4
6 -1 9 7 8 7 -2 13 4 13 12 0 8 5 18 10 22 6 5 4 8 -5 8 -13 0 -13 1 0 10 12
8 13 11 1 19 -11 7 -11 9 0 14 9 3 9 6 2 6 -8 1 -9 10 -3 30 6 21 5 31 -3 35
-9 3 -9 5 0 5 8 1 9 10 4 28 -5 16 -13 27 -18 26 -6 -1 -9 9 -7 22 1 14 -3 25
-9 25 -9 0 -9 2 0 8 7 4 10 16 9 27 -2 11 2 26 8 34 8 11 8 13 -1 7 -7 -4 -13
-2 -13 3 0 6 5 11 11 11 5 0 7 6 3 13 -5 8 -2 8 9 -2 12 -9 17 -10 17 -2 0 7
5 9 10 6 6 -3 10 0 10 8 0 7 11 20 25 27 14 7 25 17 25 22 0 4 16 8 36 8 21 0
33 -4 29 -10 -3 -5 -1 -10 5 -10 6 0 9 -4 5 -9 -7 -12 24 -43 35 -36 10 6 8
-15 -4 -34 -6 -9 -5 -12 2 -7 13 8 42 -20 42 -40 0 -8 -4 -13 -9 -10 -11 7 -2
-34 12 -52 7 -9 6 -11 -4 -7 -19 7 -41 -39 -26 -54 8 -8 7 -11 -2 -11 -7 0 -9
-4 -6 -10 4 -6 -1 -7 -11 -3 -12 4 -15 3 -10 -6 4 -6 2 -18 -4 -26 -7 -8 -9
-15 -4 -15 4 0 -1 -7 -12 -15 -11 -8 -14 -14 -6 -15 9 0 10 -5 3 -19 -6 -10
-8 -21 -4 -24 3 -4 -2 -9 -11 -13 -19 -7 -22 -44 -3 -44 8 0 8 -3 -2 -9 -11
-7 -6 -17 22 -45 20 -20 39 -36 42 -36 28 1 37 -1 32 -6 -3 -4 4 -15 16 -26
12 -11 16 -17 10 -13 -21 10 -15 -9 7 -23 12 -7 20 -23 20 -39 0 -14 3 -24 6
-20 8 8 34 -18 34 -34 0 -7 3 -9 7 -6 3 4 16 -1 27 -10 20 -17 20 -17 7 0 -12
15 -12 17 3 11 9 -3 16 -10 16 -16 0 -5 4 -6 10 -3 6 3 10 0 10 -7 0 -10 2
-10 9 1 7 11 9 11 14 0 5 -12 7 -12 15 0 5 7 15 10 21 7 6 -4 11 -2 11 4 0 6
5 8 12 4 6 -4 8 -3 4 4 -3 6 -2 14 4 17 7 4 8 11 1 18 -10 12 11 52 21 41 3
-3 5 11 3 30 -1 27 2 36 14 36 13 0 13 2 2 9 -11 7 -11 9 0 13 9 3 12 18 11
42 -2 28 1 36 10 31 7 -4 5 0 -5 8 -13 11 -15 16 -5 19 10 4 10 10 0 32 -7 15
-8 24 -2 21 13 -8 13 1 -1 27 -8 15 -8 19 0 14 6 -4 11 0 11 9 0 9 4 14 9 11
5 -3 11 1 15 9 3 8 0 17 -6 21 -7 4 -6 9 3 15 8 5 9 9 3 9 -17 0 -12 29 6 35
16 5 23 45 7 45 -5 0 -5 6 2 13 8 10 7 17 -2 26 -6 7 -7 12 -2 11 6 -2 17 -2
25 -1 13 1 13 2 0 11 -8 5 -10 10 -4 10 7 0 14 9 17 21 4 13 10 18 17 14 9 -6
9 -2 1 14 -9 16 -9 21 1 21 9 0 9 3 -2 10 -8 5 -10 10 -3 10 6 0 9 9 6 21 -4
16 -2 20 8 17 8 -3 25 -2 39 2 21 6 26 4 26 -11 0 -9 -5 -15 -11 -11 -5 3 -4
-1 2 -10 7 -8 10 -18 6 -21 -3 -4 0 -7 8 -7 11 0 11 -2 -1 -10 -13 -8 -12 -10
3 -10 9 0 17 -5 17 -11 0 -6 6 -9 13 -6 6 2 11 15 9 28 -2 16 6 33 23 49 17
16 25 19 25 9 0 -10 2 -11 8 -2 10 16 52 12 52 -5 0 -7 4 -10 10 -7 6 4 7 -1
3 -10 -3 -10 0 -21 8 -26 8 -5 9 -9 3 -9 -6 0 -11 -7 -11 -15 0 -8 3 -13 5
-10 3 3 11 -3 19 -13 8 -9 11 -11 7 -3 -5 10 -3 12 6 6 10 -6 10 -10 -3 -20
-14 -10 -14 -13 4 -26 11 -7 18 -21 17 -29 -1 -8 1 -21 5 -27 5 -8 4 -13 -3
-13 -8 0 -7 -6 1 -21 7 -15 8 -19 0 -15 -7 5 -8 0 -2 -16 7 -18 3 -28 -18 -47
-14 -13 -20 -20 -13 -17 7 5 12 1 12 -9 0 -9 -4 -14 -8 -11 -4 3 -7 -8 -6 -24
1 -19 -2 -27 -10 -24 -15 6 -17 -26 -3 -44 6 -8 5 -12 -4 -12 -11 0 -11 -2 1
-10 8 -5 12 -10 8 -11 -5 -1 -12 -3 -18 -4 -5 -1 -13 -3 -17 -4 -5 -1 -1 -6 7
-11 10 -6 11 -10 3 -10 -7 0 -12 -11 -11 -25 1 -14 7 -25 12 -25 5 0 1 -7 -10
-16 -10 -8 -13 -13 -6 -9 6 3 19 -1 28 -9 10 -11 11 -16 3 -16 -7 0 -2 -8 9
-19 12 -10 19 -21 15 -25 -3 -3 0 -6 8 -6 8 0 29 -18 48 -40 19 -22 38 -37 43
-34 5 3 7 0 6 -8 -2 -8 4 -12 16 -10 12 2 16 -1 11 -10 -3 -7 0 -4 9 6 14 17
16 17 22 3 3 -9 12 -13 20 -10 8 3 11 10 7 16 -3 6 -1 7 6 3 6 -4 23 0 38 9
21 14 27 15 34 4 8 -12 11 -11 19 1 9 13 11 13 20 0 9 -13 10 -13 10 0 0 13 1
13 10 0 9 -13 11 -13 20 0 9 13 11 13 19 1 8 -12 12 -12 25 -2 12 11 16 11 16
1 0 -10 3 -10 15 0 10 8 15 9 15 2 0 -7 12 -4 30 6 16 9 30 23 30 30 0 6 5 12
10 12 6 0 9 3 9 8 -1 4 0 10 1 15 6 19 5 33 -5 39 -6 5 -4 8 5 8 12 0 13 2 1
9 -11 7 -9 10 8 16 18 5 20 9 10 21 -10 12 -10 15 1 12 8 -2 14 3 15 9 0 7 11
20 24 30 13 9 22 12 18 6 -3 -5 0 -10 8 -10 8 0 13 3 10 5 -3 3 0 11 6 19 8 8
8 13 1 13 -15 0 -8 33 9 39 21 9 19 40 -3 47 -16 5 -18 8 -7 15 12 7 12 9 0 9
-10 0 -11 4 -3 13 12 14 -20 61 -34 49 -5 -4 -3 0 4 10 10 13 10 17 0 21 -7 3
-8 6 -2 6 14 1 9 62 -6 71 -7 4 -11 32 -11 66 0 32 -5 64 -11 72 -8 10 -7 11
8 5 17 -6 17 -5 5 10 -11 14 -11 17 0 17 12 0 12 2 1 9 -11 7 -10 9 3 15 9 3
13 11 9 17 -5 8 -3 9 6 4 7 -4 16 -2 21 6 7 12 9 11 9 -1 0 -13 1 -13 11 0 8
11 12 12 16 2 2 -6 9 -10 14 -6 5 3 9 0 9 -6 0 -6 4 -8 10 -5 6 3 7 -1 4 -9
-3 -9 -1 -16 5 -16 7 0 23 -11 36 -24 18 -18 21 -26 12 -36 -9 -10 -9 -11 0
-6 13 7 12 -31 -1 -53 -5 -7 -4 -16 2 -20 11 -7 9 -61 -3 -81 -5 -8 -4 -11 2
-7 5 3 10 0 10 -8 0 -8 -4 -12 -8 -10 -14 10 -24 -22 -23 -75 2 -78 3 -80 15
-80 6 0 17 -7 25 -15 9 -8 12 -15 7 -15 -4 0 4 -8 17 -17 14 -9 29 -23 33 -30
5 -7 12 -11 18 -8 5 4 6 -2 2 -11 -5 -12 -3 -15 6 -9 10 5 11 2 6 -14 -5 -16
-2 -21 12 -21 15 0 16 -2 3 -10 -10 -6 -11 -10 -2 -10 6 0 12 -5 12 -11 0 -5
-6 -7 -12 -3 -8 4 -10 3 -5 -2 5 -5 12 -9 15 -9 11 0 47 -40 50 -56 2 -8 10
-19 18 -25 7 -6 14 -16 14 -21 0 -6 9 -13 20 -16 13 -3 20 0 20 9 0 11 5 12
16 6 21 -12 60 6 72 33 12 26 66 26 88 -1 9 -10 12 -12 8 -4 -7 13 -5 13 9 1
14 -11 17 -11 17 0 0 9 3 10 8 4 4 -5 16 -10 27 -10 11 0 23 5 27 10 5 6 8 5
8 -3 0 -7 5 -10 10 -7 6 4 9 1 8 -5 -2 -7 5 -14 14 -15 11 -2 15 2 11 11 -3 8
0 14 7 14 6 0 8 4 5 10 -3 5 2 10 12 10 14 0 15 2 4 9 -9 6 -10 11 -2 15 20
13 32 44 19 52 -7 5 -8 3 -3 -6 6 -9 4 -11 -5 -5 -10 6 -9 11 5 22 14 9 15 13
4 13 -12 0 -12 2 1 10 8 5 10 10 4 10 -12 0 -13 58 -1 77 4 6 3 14 -3 18 -5 3
-10 11 -10 16 0 6 4 8 8 5 5 -3 9 1 9 9 0 8 -4 12 -8 9 -12 -7 -6 49 6 62 6 7
13 10 18 7 4 -2 7 3 7 11 0 9 7 16 16 16 8 0 12 5 9 11 -4 6 -1 10 6 8 26 -3
40 1 34 10 -3 5 -1 12 5 16 5 3 10 0 10 -7 0 -10 3 -9 9 2 6 8 8 17 6 20 -2 3
8 6 21 6 15 1 21 -2 17 -10 -4 -6 0 -5 9 2 21 17 28 4 22 -39 -4 -25 -2 -30 5
-19 7 10 11 11 11 3 0 -7 9 -13 21 -13 11 0 17 -5 14 -10 -3 -6 3 -10 14 -10
12 0 21 -4 21 -9 0 -14 37 -20 50 -7 8 8 10 7 5 -4 -4 -11 1 -16 14 -16 11 0
17 4 15 8 -9 14 17 8 33 -8 11 -11 18 -12 23 -4 10 16 63 20 72 6 6 -8 8 -7 8
2 0 10 3 10 14 0 8 -7 12 -16 9 -20 -2 -5 3 -8 12 -8 9 0 13 -4 10 -10 -3 -5
1 -10 9 -10 8 0 18 -9 21 -20 4 -11 10 -18 14 -16 4 3 15 -4 24 -14 11 -13 12
-20 4 -23 -7 -2 0 -15 17 -30 16 -15 33 -24 39 -20 6 3 7 1 3 -5 -4 -6 5 -19
19 -28 18 -12 24 -23 21 -40 -3 -14 -1 -22 5 -19 5 4 9 2 9 -4 0 -5 9 -13 20
-16 11 -4 18 -11 15 -16 -4 -5 5 -14 19 -20 13 -6 22 -17 20 -24 -3 -7 0 -16
7 -21 8 -5 10 -3 4 6 -5 9 -4 11 4 6 9 -6 9 -11 1 -21 -7 -8 -9 -19 -5 -25 3
-5 0 -10 -7 -10 -8 -1 -6 -6 6 -15 11 -8 14 -15 8 -15 -18 0 -15 -37 4 -44 10
-4 13 -2 8 7 -4 6 4 2 17 -10 20 -18 26 -19 37 -7 7 8 9 14 5 14 -4 0 -2 4 6
9 13 9 15 25 8 98 -2 18 1 33 6 33 5 0 3 8 -4 18 -7 9 -10 14 -5 10 5 -4 15 0
23 8 8 8 18 12 22 10 4 -3 7 5 6 17 -1 12 2 30 6 39 6 10 5 19 -1 23 -5 3 -10
11 -10 16 0 6 5 7 10 4 18 -11 11 4 -12 25 -22 20 -35 56 -17 44 12 -7 1 46
-12 60 -5 6 -9 18 -9 29 0 10 -7 25 -16 34 -8 9 -13 22 -10 29 3 8 1 14 -4 14
-6 0 -10 7 -10 16 0 8 -4 13 -9 10 -11 -7 -9 13 3 33 7 10 5 12 -5 6 -11 -6
-11 -5 -2 5 9 10 6 18 -13 37 -26 26 -33 43 -9 23 13 -11 14 -10 9 4 -3 9 -13
16 -21 16 -8 0 -12 4 -9 9 4 5 0 12 -6 14 -9 4 -9 6 1 6 12 1 11 4 -3 14 -9 7
-18 24 -19 37 0 14 -8 31 -17 38 -13 10 -12 11 5 6 17 -4 16 -3 -3 8 -17 11
-20 16 -10 26 9 9 9 12 0 12 -6 0 -9 7 -6 15 4 8 -1 17 -10 21 -18 7 -19 64
-1 64 5 0 -2 11 -17 25 -15 14 -32 25 -37 25 -6 0 -8 7 -5 15 9 24 -5 65 -22
65 -8 0 -13 4 -10 9 4 5 0 11 -6 13 -7 3 -13 13 -13 24 0 10 -6 18 -12 16 -12
-2 -17 10 -14 31 0 4 -4 7 -10 7 -10 0 -42 26 -38 32 5 8 -13 48 -20 44 -4 -3
-8 1 -8 9 0 8 5 15 11 15 7 0 7 3 1 8 -14 10 -17 32 -5 32 5 0 7 7 3 15 -3 10
0 15 8 13 9 -2 13 5 11 20 -1 13 5 30 13 39 8 8 13 19 10 24 -4 5 -1 9 6 9 9
0 9 3 0 14 -9 11 -9 15 1 19 8 4 9 6 1 6 -6 1 -9 10 -5 23 4 16 2 19 -9 13
-12 -8 -12 -6 0 8 7 9 11 26 8 37 -3 11 0 20 6 20 7 0 5 5 -3 10 -11 7 -11 10
-2 10 8 0 10 5 6 12 -11 18 -11 87 0 85 6 -1 12 7 14 18 2 11 10 27 18 36 8 9
11 19 7 23 -5 4 -3 7 2 6 21 -5 36 0 30 9 -3 5 0 13 6 17 8 4 9 3 5 -4 -4 -7
-2 -12 3 -12 6 0 11 5 11 10 0 7 7 7 22 -1 18 -10 20 -9 15 5 -5 13 -3 14 13
4 10 -7 16 -16 14 -20 -3 -4 -1 -8 3 -8 5 0 8 -37 7 -82 -2 -86 2 -110 17 -87
7 11 9 11 9 1 0 -7 4 -11 9 -8 5 3 11 -5 13 -19 3 -13 2 -23 -1 -21 -3 2 -6
-6 -6 -19 0 -13 3 -21 8 -18 4 2 7 -1 7 -6 0 -6 -6 -11 -12 -12 -7 0 -4 -4 7
-9 12 -5 14 -9 6 -9 -9 -1 -6 -8 9 -21 12 -11 28 -17 34 -13 6 3 8 3 4 -2 -4
-4 0 -14 8 -22 8 -8 12 -18 10 -21 -2 -4 2 -13 10 -20 9 -8 14 -9 14 -2 0 7 5
6 14 -2 8 -7 12 -16 10 -20 -2 -4 0 -9 5 -13 6 -3 8 -12 5 -20 -4 -8 -11 -12
-16 -9 -6 4 -5 -3 2 -15 6 -12 15 -19 19 -16 5 3 12 -2 15 -11 3 -8 2 -12 -4
-9 -6 3 -10 1 -10 -4 0 -6 5 -11 11 -11 8 0 8 -5 -1 -15 -10 -12 -10 -15 0
-15 10 0 10 -3 0 -15 -9 -10 -9 -15 -1 -15 8 0 8 -5 -1 -19 -7 -11 -15 -18
-19 -16 -3 3 -5 -11 -4 -30 1 -19 -2 -32 -7 -29 -4 3 -8 1 -8 -4 0 -6 -10 -8
-22 -4 -16 4 -19 2 -13 -9 7 -11 5 -11 -10 1 -10 8 -16 10 -12 4 3 -5 -3 -23
-14 -40 -20 -30 -26 -59 -10 -50 5 3 14 -1 20 -8 9 -10 9 -16 1 -21 -8 -5 -8
-11 1 -21 9 -11 8 -14 -2 -14 -12 0 -12 -2 0 -9 11 -7 11 -9 0 -14 -12 -4 -11
-7 1 -16 8 -6 11 -11 6 -11 -6 0 -2 -6 9 -13 10 -8 15 -19 11 -25 -4 -7 -3
-12 3 -12 9 0 27 -38 23 -52 -1 -4 8 -10 20 -13 16 -6 18 -9 7 -16 -12 -7 -11
-9 1 -9 13 0 13 -1 0 -10 -13 -8 -13 -10 1 -10 9 0 16 -7 15 -16 0 -9 7 -18
16 -19 14 -3 15 1 8 21 -6 15 -6 26 1 30 7 4 7 10 0 18 -6 7 -6 17 -1 26 6 9
5 17 -2 21 -6 4 -2 10 11 14 14 4 21 15 21 31 0 21 5 24 34 24 28 0 35 -4 41
-27 3 -15 14 -33 23 -40 9 -7 12 -13 6 -13 -7 0 -9 -11 -6 -25 2 -14 9 -22 15
-18 6 4 8 -2 5 -15 -4 -12 -3 -20 2 -17 10 6 33 -22 26 -33 -3 -5 3 -18 14
-30 13 -14 16 -22 7 -25 -9 -3 -9 -7 0 -18 14 -18 14 -30 0 -47 -9 -11 -7 -13
8 -10 15 2 20 -3 20 -22 0 -16 8 -28 23 -35 19 -9 24 -18 21 -41 0 -4 5 -11
13 -15 7 -5 8 -9 2 -9 -6 0 -11 -8 -11 -17 0 -20 22 -45 31 -36 3 4 6 -1 6
-10 0 -10 7 -17 16 -17 8 0 12 -4 9 -10 -3 -5 2 -10 11 -10 10 0 15 -3 11 -6
-8 -8 18 -34 33 -34 6 0 9 -4 6 -9 -4 -5 0 -12 6 -14 10 -4 9 -6 -1 -6 -11 -1
-11 -4 0 -18 8 -9 9 -14 3 -10 -6 3 -11 0 -11 -8 0 -8 3 -14 6 -13 21 2 29 -5
29 -27 0 -13 -5 -22 -10 -19 -6 4 -7 0 -1 -12 11 -22 11 -84 0 -101 -4 -6 -4
-14 1 -17 10 -6 8 -68 -3 -85 -5 -9 -4 -12 2 -8 5 4 10 -6 10 -23 0 -17 -5
-27 -10 -23 -6 4 -7 1 -2 -7 5 -8 9 -40 9 -72 1 -39 6 -62 15 -67 8 -6 12 -19
9 -35 -3 -15 -1 -29 4 -32 4 -3 6 -9 3 -14 -11 -18 -11 -80 -1 -84 8 -3 7 -5
0 -5 -8 -1 -9 -14 -4 -41 4 -22 4 -37 0 -35 -9 5 -6 -52 3 -61 3 -3 2 -16 -3
-29 -5 -13 -6 -26 -2 -29 3 -4 5 -22 4 -41 -2 -24 1 -34 10 -33 15 4 18 -24 3
-34 -5 -4 -1 -8 10 -8 14 0 16 -3 8 -8 -7 -5 -15 -22 -17 -40 -2 -17 0 -30 4
-27 4 2 6 -18 4 -45 -1 -28 2 -47 7 -44 5 3 9 -2 9 -11 0 -10 5 -13 13 -9 9 6
9 5 0 -7 -10 -13 -8 -15 12 -15 13 0 21 4 19 8 -3 4 -1 8 3 8 12 0 10 63 -2
72 -6 4 -2 8 8 8 10 0 15 5 12 10 -3 6 0 12 7 15 10 4 12 20 8 65 -3 33 -3 60
1 60 3 0 5 11 4 24 -2 16 1 23 9 20 9 -4 12 14 10 71 -2 53 1 75 9 75 8 0 7 3
-2 9 -9 6 -11 18 -7 35 4 15 10 24 15 21 5 -2 11 2 14 9 3 8 1 17 -6 19 -9 3
-9 11 0 35 6 19 7 34 2 38 -14 8 -11 26 4 18 9 -5 9 -4 0 6 -8 9 -9 19 -3 31
7 11 7 20 0 24 -15 9 -12 27 3 19 9 -5 9 -4 0 6 -8 9 -9 19 -3 31 7 11 7 20 0
24 -15 9 -12 27 3 19 9 -5 9 -4 0 6 -8 9 -9 19 -3 31 7 11 7 20 0 24 -15 9
-12 27 3 19 9 -5 9 -4 0 6 -8 9 -9 19 -3 31 7 11 7 20 0 24 -15 9 -12 27 3 19
9 -5 9 -4 0 6 -8 9 -9 19 -3 31 7 11 7 20 0 24 -5 3 -10 11 -10 16 0 6 5 7 11
3 8 -4 7 0 -1 15 -6 13 -16 19 -23 15 -7 -4 -9 -4 -5 1 4 4 3 17 -3 28 -8 14
-8 18 0 13 12 -8 10 28 -1 40 -4 3 -3 17 2 30 6 14 6 26 0 29 -5 3 -6 16 -2
28 9 28 8 139 -2 155 -5 8 -1 12 11 12 12 0 14 3 6 8 -18 11 -10 36 20 64 21
20 24 27 14 38 -7 7 -7 10 -1 7 6 -3 16 3 24 13 8 10 17 17 22 14 5 -3 8 -2 7
3 -4 22 2 35 15 30 9 -4 13 2 12 16 -1 22 14 48 24 42 11 -7 6 40 -4 47 -7 5
-5 8 4 8 13 0 13 1 0 10 -13 8 -12 11 5 16 22 6 32 44 12 44 -7 0 -6 4 3 10
13 9 13 11 0 20 -8 5 -10 10 -4 10 6 0 12 17 12 38 2 60 5 70 18 65 14 -5 14
28 -1 39 -6 5 -4 8 5 8 13 0 13 1 0 10 -13 9 -13 10 0 10 13 0 13 1 0 10 -8 5
-10 10 -4 10 5 0 9 12 8 27 -6 69 -9 81 -14 78 -4 -2 -13 11 -20 30 -8 19 -19
35 -24 35 -6 0 -4 5 4 10 9 6 11 10 3 10 -7 0 -10 7 -7 15 4 8 10 13 14 10 5
-3 11 1 13 7 4 10 6 10 6 1 1 -7 6 -13 13 -13 6 0 8 3 5 6 -4 4 2 14 12 23 14
12 18 28 17 66 -2 28 1 55 6 62 6 7 4 14 -3 19 -8 5 -9 3 -4 -6 5 -9 4 -11 -4
-6 -16 10 6 39 23 29 6 -3 8 -3 4 2 -4 4 -3 14 3 22 9 10 8 13 -2 13 -11 0
-11 2 1 10 8 5 10 10 4 10 -16 0 -12 32 6 48 13 10 13 11 -2 6 -15 -5 -16 -2
-5 25 6 16 14 28 18 25 4 -2 10 0 13 5 4 5 1 13 -5 17 -8 5 -9 3 -4 -6 5 -9 4
-11 -4 -6 -6 4 -8 13 -4 19 4 7 8 21 9 32 3 34 8 49 24 63 8 8 10 11 3 8 -6
-4 -14 -2 -18 4 -3 5 0 10 7 10 13 0 16 65 4 97 -3 7 -1 13 5 13 6 0 7 5 4 10
-3 6 -2 10 3 10 9 0 11 7 15 57 1 21 6 28 13 23 7 -6 10 0 10 18 -1 15 4 27
12 27 6 0 11 4 10 8 -2 5 8 15 22 22 14 8 20 14 14 15 -16 0 -11 44 6 51 8 4
24 2 35 -4 19 -10 19 -9 5 8 -8 10 -9 16 -3 11 15 -9 53 10 53 27 0 7 -4 6
-10 -3 -12 -19 -13 -5 -1 18 5 9 12 25 15 35 4 11 11 15 18 11 9 -5 9 -3 -1 9
-10 13 -10 17 -1 17 7 0 10 7 6 16 -3 8 -2 13 3 9 5 -3 19 7 31 22 12 16 19
21 15 13 -4 -8 1 -6 9 4 11 14 13 22 5 27 -7 4 -5 9 6 13 10 3 13 11 9 18 -4
7 -4 10 0 6 14 -12 76 59 71 81 -3 15 0 18 12 14 12 -5 14 -1 8 17 -5 15 -4
20 4 16 6 -4 11 -2 11 3 0 19 2 26 12 44 7 15 12 16 24 6 11 -9 14 -8 14 5 0
9 6 16 13 16 7 0 8 3 2 8 -13 9 -18 35 -5 27 5 -3 10 1 10 9 0 9 6 16 13 16 8
0 7 4 -3 10 -13 8 -8 14 11 12 4 -1 6 6 5 15 0 10 11 23 27 31 23 11 30 23 26
48 0 4 5 10 13 15 7 5 13 12 14 16 2 16 18 48 28 55 6 4 5 12 -3 21 -9 12 -9
17 0 23 8 5 10 3 5 -7 -4 -8 -1 -6 7 4 8 10 14 29 13 41 -2 16 2 23 12 22 9
-1 16 8 17 22 1 12 8 28 15 35 10 10 11 9 5 -2 -5 -9 -4 -12 3 -7 6 4 9 13 5
21 -3 8 0 15 7 15 6 0 8 5 5 10 -3 6 -1 10 5 10 7 0 9 8 5 21 -5 14 -3 19 4
15 10 -6 14 5 24 59 2 11 9 19 16 17 7 -1 10 2 7 7 -4 5 2 14 11 20 10 6 14
11 8 11 -5 0 -3 5 5 10 11 7 11 10 2 10 -9 0 -10 5 -3 19 6 10 7 22 3 26 -4 5
-2 5 5 1 6 -3 14 -2 18 4 3 5 1 10 -5 10 -6 0 -8 5 -3 13 4 6 8 26 8 42 1 19
6 29 15 27 8 -2 11 4 7 18 -5 19 -2 22 26 24 6 1 22 12 35 25 23 25 29 36 12
26 -6 -3 -7 1 -4 9 3 9 10 14 16 13 6 -1 12 7 14 18 1 11 8 21 14 23 5 2 8 8
4 13 -3 5 -1 9 4 9 6 0 9 8 8 18 0 9 4 16 10 15 6 -1 10 8 9 20 -2 23 15 48
28 40 4 -2 7 0 7 6 0 5 -6 12 -12 14 -8 3 -6 6 5 6 9 1 17 5 17 10 0 5 3 17 7
27 4 12 3 15 -5 10 -9 -6 -9 -1 -1 18 7 14 15 24 18 21 6 -3 11 20 14 62 0 7
4 10 9 7 4 -3 8 3 9 13 1 10 2 34 2 53 2 25 6 34 17 32 8 -2 12 0 8 4 -4 4 -2
14 5 22 10 13 9 14 -3 7 -13 -8 -13 -6 -1 8 7 9 18 14 25 10 7 -4 7 -1 -1 8
-15 19 1 39 30 39 10 0 15 5 12 10 -3 6 -3 10 2 10 4 0 8 16 9 35 0 18 -3 32
-8 29 -4 -3 -8 0 -8 5 0 6 7 11 16 11 8 0 12 4 9 10 -3 6 0 10 8 10 20 0 41
26 28 34 -6 4 -3 14 9 26 14 14 31 18 61 17 31 -2 47 2 60 17 10 10 16 23 13
28 -3 4 0 8 6 8 6 0 8 5 5 10 -3 6 2 10 11 10 10 0 15 3 11 6 -3 4 1 13 9 21
8 9 13 21 10 28 -5 14 20 29 34 20 4 -3 7 17 6 43 0 29 -6 47 -13 48 -7 1 -16
2 -21 3 -11 2 -9 85 3 93 6 5 5 8 -4 8 -11 0 -11 3 0 17 8 9 9 14 4 11 -6 -4
-11 2 -11 12 0 10 5 16 11 12 5 -3 4 1 -3 10 -9 11 -9 18 -3 23 7 4 3 14 -9
27 -20 22 -28 54 -10 43 6 -3 7 1 4 9 -3 9 -11 13 -18 9 -8 -5 -8 -3 0 8 5 8
9 20 8 27 -1 6 -2 17 -3 23 0 5 -7 7 -13 3 -7 -4 -10 -4 -6 1 4 4 3 16 -3 26
-7 13 -6 19 1 19 6 0 8 5 4 12 -12 19 -12 48 -1 48 6 0 2 10 -9 22 -10 12 -13
18 -6 14 6 -4 12 -3 12 3 0 5 -9 13 -20 16 -11 3 -20 11 -20 16 0 6 5 7 10 4
6 -3 10 -2 10 4 0 5 -5 13 -10 16 -7 4 -7 12 -2 18 12 17 14 69 2 62 -6 -3
-10 5 -10 19 0 14 -6 26 -12 26 -9 0 -8 4 2 10 12 8 12 10 1 10 -11 0 -11 3 0
17 11 13 11 17 1 21 -10 3 -10 7 0 20 7 9 8 13 2 9 -15 -9 -38 19 -31 37 3 8
-2 16 -13 19 -14 4 -17 11 -13 27 5 17 3 21 -7 15 -10 -6 -12 0 -8 23 2 18 0
30 -6 29 -5 -1 -10 7 -10 18 0 11 -5 23 -11 27 -5 4 -10 13 -10 20 -1 7 -7 12
-14 10 -9 -2 -11 3 -7 13 3 9 2 13 -4 10 -6 -3 -13 0 -16 9 -5 12 -10 13 -30
4 -13 -6 -24 -15 -24 -19 0 -5 -6 -6 -14 -3 -8 3 -17 0 -22 -7 -5 -8 -3 -10 7
-4 12 7 12 6 0 -6 -10 -11 -15 -11 -18 -1 -3 6 -9 12 -14 12 -6 0 -7 -4 -4
-10 3 -6 -1 -7 -9 -4 -9 3 -16 10 -16 16 0 5 -4 7 -9 4 -5 -4 -12 0 -14 6 -4
10 -6 10 -6 -1 -1 -8 -9 -5 -22 10 -11 13 -17 17 -13 9 6 -12 4 -13 -7 -2 -7
6 -19 12 -27 12 -8 0 -21 8 -29 18 -9 10 -11 11 -7 2 4 -8 -5 -3 -20 12 -18
18 -26 34 -22 44 4 11 0 18 -14 21 -11 3 -17 9 -14 14 3 5 -2 9 -11 9 -8 0
-18 6 -21 13 -3 8 -18 12 -42 10 -82 -8 -102 -14 -103 -31 0 -10 -3 -12 -6 -5
-3 9 -14 4 -33 -15 -15 -15 -26 -30 -23 -34 4 -7 -12 -12 -29 -9 -5 0 -8 -4
-8 -9 0 -6 -7 -10 -15 -10 -8 0 -15 -5 -15 -11 0 -5 -4 -8 -9 -5 -8 5 -6 -47
4 -96 2 -10 0 -18 -4 -18 -4 0 -5 -16 -3 -36 3 -27 1 -35 -7 -29 -9 5 -8 1 1
-14 7 -12 17 -21 23 -21 5 0 10 -13 11 -30 1 -16 -3 -27 -8 -23 -6 3 -7 -2 -1
-13 12 -24 7 -74 -8 -88 -9 -8 -10 -7 -4 3 5 9 4 12 -3 7 -8 -5 -8 -15 -1 -32
8 -22 7 -25 -5 -21 -11 4 -13 1 -9 -10 4 -10 2 -14 -4 -10 -6 4 -9 -7 -8 -26
3 -38 -4 -59 -15 -52 -5 3 -11 1 -14 -4 -4 -5 -2 -12 3 -15 14 -9 0 -46 -18
-46 -14 0 -14 -2 -1 -10 12 -8 12 -10 1 -10 -9 0 -12 -8 -9 -25 4 -17 1 -25
-8 -25 -8 0 -14 -8 -14 -18 0 -10 -7 -27 -16 -38 -8 -10 -12 -13 -8 -5 5 9 3
12 -5 7 -6 -4 -9 -11 -6 -16 3 -5 -7 -21 -22 -36 -16 -15 -19 -21 -9 -13 18
13 18 13 6 -8 -8 -12 -19 -21 -24 -20 -6 1 -10 -6 -10 -15 1 -10 -5 -18 -15
-19 -10 0 -11 -3 -4 -6 10 -3 10 -7 0 -18 -7 -7 -15 -11 -19 -8 -5 2 -8 0 -8
-5 0 -11 -35 -53 -41 -49 -2 2 -15 -8 -29 -22 -14 -13 -18 -20 -10 -16 13 8
13 7 1 -8 -8 -10 -16 -15 -19 -12 -7 6 -38 -37 -34 -48 1 -5 -2 -6 -8 -2 -8 5
-7 12 2 23 9 13 7 12 -9 -2 -12 -10 -29 -16 -38 -13 -8 4 -15 1 -15 -5 0 -7
-4 -7 -14 1 -11 9 -15 9 -19 -1 -4 -9 -6 -10 -6 -1 -1 7 -8 10 -17 6 -9 -3
-20 0 -25 8 -5 8 -9 9 -9 3 0 -7 -7 -14 -14 -17 -11 -4 -13 -1 -9 10 4 10 2
14 -5 9 -6 -3 -13 -2 -17 4 -4 6 -11 8 -16 5 -5 -4 -9 -1 -9 4 0 6 -5 11 -11
11 -5 0 -7 -6 -4 -12 4 -7 -1 -4 -9 6 -9 11 -23 21 -31 23 -8 2 -22 4 -30 6
-8 2 -21 9 -28 17 -9 11 -8 11 8 0 18 -14 19 -14 6 3 -7 9 -24 17 -38 17 -14
0 -21 4 -18 10 3 6 -1 10 -9 10 -9 0 -16 6 -16 13 0 8 -4 7 -10 -3 -6 -10 -10
-11 -10 -2 0 6 -7 12 -16 12 -8 0 -12 5 -9 10 3 6 1 10 -5 10 -6 0 -8 5 -4 12
4 7 3 8 -5 4 -6 -4 -14 0 -17 8 -3 9 -13 16 -21 16 -8 0 -11 5 -8 10 4 6 3 10
-2 9 -20 -3 -34 2 -28 11 3 6 -3 10 -14 10 -11 0 -25 9 -31 21 -7 12 -18 18
-26 15 -9 -3 -12 -2 -9 5 9 13 -25 50 -38 42 -6 -3 -7 -1 -3 6 4 6 13 9 19 5
7 -3 -1 7 -18 22 -16 15 -29 31 -28 35 2 4 -6 6 -17 4 -18 -4 -26 10 -21 37 0
5 -2 7 -7 6 -12 -4 -61 47 -72 76 -5 15 -14 24 -20 21 -5 -3 -7 0 -4 8 3 9 -3
17 -17 20 -19 5 -20 8 -9 21 9 12 9 16 1 16 -7 0 -10 4 -7 9 3 5 -1 12 -10 15
-13 5 -14 9 -4 21 9 11 9 15 1 15 -7 0 -10 4 -7 8 3 5 -1 9 -9 10 -8 1 -21 3
-29 4 -8 1 -11 9 -8 20 2 10 -1 18 -8 18 -10 0 -10 3 0 15 10 12 10 15 0 15
-10 0 -10 3 0 15 9 11 9 15 1 15 -8 0 -9 5 -1 19 8 16 6 22 -7 30 -10 6 -14
11 -9 11 5 0 2 8 -5 17 -12 15 -12 16 1 8 12 -6 13 -5 3 6 -16 17 -17 43 -1
33 7 -5 8 -3 2 7 -4 8 -9 20 -10 26 -1 7 -9 20 -18 29 -18 18 -21 28 -6 19 7
-4 9 3 6 21 -3 15 -11 31 -18 36 -11 6 -10 8 0 8 10 0 9 4 -2 16 -9 8 -14 20
-10 25 3 6 0 16 -6 24 -7 8 -9 22 -6 31 5 13 3 14 -7 6 -10 -8 -12 -3 -12 28
0 29 -3 36 -11 29 -14 -11 -14 7 -1 29 5 6 4 12 -1 12 -5 0 -9 7 -9 15 0 8 3
15 7 15 4 0 7 6 7 14 0 8 -4 14 -9 13 -5 -1 -17 9 -26 23 -11 16 -13 21 -3 16
10 -7 12 -3 6 14 -5 15 -2 25 6 31 11 7 10 9 -3 9 -10 0 -19 3 -19 8 -6 39 -4
74 4 79 6 4 7 1 2 -7 -5 -9 -4 -11 4 -6 6 4 9 12 5 17 -3 5 0 17 8 26 11 14
11 16 -1 9 -10 -7 -12 2 -10 42 3 39 1 48 -8 40 -9 -7 -11 -4 -8 12 3 18 2 20
-10 10 -12 -10 -15 -9 -16 6 -1 11 -1 25 0 33 2 8 -2 10 -10 5 -8 -5 -10 -3
-4 7 13 19 15 59 4 59 -5 0 -9 7 -9 15 0 8 -7 15 -15 15 -9 0 -12 6 -8 17 4
10 2 14 -4 10 -6 -4 -18 4 -27 17 -12 18 -12 26 -3 29 9 4 9 6 -1 6 -7 1 -10
6 -7 11 3 6 2 10 -3 10 -5 0 -12 11 -14 25 -3 14 -1 25 6 25 6 0 4 5 -4 10 -8
5 -10 10 -5 10 6 0 11 8 11 19 0 12 -5 17 -15 13 -9 -3 -12 -1 -7 6 3 6 1 14
-5 17 -5 4 -8 13 -5 21 3 8 1 14 -4 14 -6 0 -10 5 -10 12 0 6 -8 20 -17 31
-10 11 -12 17 -5 13 6 -4 12 -2 12 3 0 6 -7 11 -15 11 -8 0 -14 3 -14 8 4 21
-2 32 -13 26 -8 -5 -7 0 2 11 13 17 13 18 -1 13 -12 -5 -16 -2 -12 11 2 9 -5
25 -16 35 -12 11 -21 26 -21 34 0 9 -8 24 -17 35 -13 15 -14 19 -3 13 9 -5 8
-2 -2 7 -10 8 -15 17 -11 20 3 4 1 7 -6 7 -8 0 -11 6 -7 16 3 8 2 13 -3 10
-11 -7 -23 22 -14 36 3 6 2 9 -3 5 -5 -3 -14 6 -21 19 -6 13 -7 22 -3 19 5 -3
7 9 5 27 -1 18 4 43 12 56 7 12 11 27 8 32 -3 6 -1 10 5 10 6 0 9 4 5 9 -3 5
0 13 6 17 8 4 9 3 5 -4 -4 -7 -2 -12 3 -12 6 0 11 5 11 11 0 5 4 8 9 5 5 -3
12 1 15 10 3 8 10 12 16 9 5 -3 7 0 4 8 -3 8 0 18 6 22 6 3 10 3 9 -2 -4 -22
3 -24 20 -5 10 12 21 19 25 15 3 -3 6 1 6 10 0 9 5 19 12 23 7 5 8 3 3 -7 -5
-8 2 -5 15 6 15 13 21 15 16 5 -4 -8 0 -6 9 5 9 11 25 19 36 17 11 -2 18 2 17
8 -2 7 7 14 20 16 14 2 21 0 17 -6 -3 -6 1 -7 9 -4 9 3 16 10 16 16 0 5 5 6
10 3 6 -3 10 -1 10 5 0 7 5 10 12 8 6 -2 20 4 30 14 12 12 24 16 34 10 8 -4
37 -5 64 -2 29 4 54 2 60 -4 7 -7 10 -6 10 2 0 7 3 11 8 11 4 -1 14 -1 22 0
13 1 13 2 0 11 -12 8 -10 10 10 7 14 -1 31 -6 37 -10 9 -6 11 -3 7 7 -4 11 0
13 15 9 12 -3 21 -11 21 -17 0 -7 7 -13 15 -13 8 0 12 4 9 9 -5 7 18 13 39 9
5 -1 5 4 1 10 -5 8 -2 10 7 7 10 -4 15 1 15 12 0 10 -4 16 -8 14 -10 -6 -29
32 -20 41 4 5 1 5 -5 1 -7 -4 -13 -2 -13 3 0 6 -6 11 -14 11 -7 0 -20 8 -27
18 -13 16 -13 16 6 2 19 -14 19 -14 6 3 -7 9 -19 17 -26 17 -7 0 -16 7 -19 16
-3 8 -11 12 -17 8 -7 -4 -9 -3 -6 3 4 6 0 13 -8 17 -8 3 -15 10 -15 16 0 6 -6
18 -14 26 -11 10 -15 11 -19 1 -2 -6 -5 7 -5 30 0 24 -4 47 -7 53 -3 5 0 10 7
10 9 0 9 3 -2 10 -10 6 -11 10 -3 10 9 0 10 7 3 25 -5 14 -7 25 -4 25 2 0 0 9
-6 20 -7 12 -16 18 -23 13 -7 -4 -6 1 2 11 12 15 12 19 -7 32 -19 13 -20 18
-10 37 10 20 9 21 -5 9 -13 -11 -15 -10 -13 5 2 10 -2 21 -8 25 -7 5 -6 8 4 8
13 0 13 2 1 9 -13 8 -13 12 0 27 9 11 9 15 2 10 -8 -4 -13 -1 -13 8 0 9 -4 16
-10 16 -5 0 -10 5 -10 11 0 5 5 7 12 3 7 -5 8 -3 2 7 -4 8 -9 21 -11 29 -1 8
-9 20 -17 26 -18 13 -22 29 -5 18 8 -4 8 -1 1 12 -5 11 -7 25 -5 31 5 14 -19
43 -35 43 -5 0 -7 12 -4 26 3 19 1 25 -7 20 -10 -6 -15 6 -12 27 0 4 -5 7 -12
7 -8 0 -7 4 3 10 12 8 12 10 1 10 -8 0 -11 7 -8 20 3 11 1 20 -4 20 -5 0 -8 6
-6 13 1 6 -3 11 -8 10 -6 -1 -10 14 -9 33 1 19 -1 32 -5 30 -3 -2 -11 2 -18 9
-10 11 -10 15 0 18 7 3 5 6 -5 6 -12 1 -15 6 -11 18 4 11 3 14 -5 9 -7 -4 -12
-1 -12 9 0 9 -4 13 -10 10 -5 -3 -10 3 -10 15 0 12 -3 19 -8 16 -4 -2 -16 3
-27 11 -16 13 -17 15 -2 10 15 -6 14 -2 -4 23 -12 16 -28 31 -36 34 -7 3 -13
13 -13 21 0 9 -4 14 -9 10 -5 -3 -13 4 -16 16 -4 11 -9 18 -12 15 -6 -5 -21 6
-59 44 -22 22 -24 23 -19 5 3 -12 1 -10 -7 5 -15 30 -29 41 -42 33 -5 -3 -6
-1 -2 5 4 7 1 12 -9 12 -9 0 -13 5 -10 10 3 6 1 10 -6 10 -6 0 -29 19 -51 43
-22 23 -37 36 -34 30 4 -7 4 -13 1 -13 -11 0 -50 41 -50 53 -1 7 -6 11 -13 10
-7 -2 -12 3 -12 10 0 8 -4 7 -10 -3 -7 -11 -10 -11 -10 -2 0 7 -4 10 -10 7 -5
-3 -10 -1 -10 5 0 6 -4 8 -10 5 -5 -3 -10 -1 -10 5 0 6 -4 8 -10 5 -5 -3 -10
-1 -10 5 0 7 -7 9 -16 6 -8 -3 -12 -2 -9 4 3 6 -3 10 -14 10 -12 0 -21 5 -21
10 0 6 -9 10 -20 10 -11 0 -20 5 -20 11 0 5 -4 8 -9 5 -5 -3 -14 1 -21 10 -7
8 -19 13 -27 10 -18 -7 -44 4 -37 16 3 5 0 9 -7 7 -27 -3 -40 1 -34 11 3 5 0
7 -8 4 -8 -3 -18 0 -22 5 -3 6 -11 9 -16 6 -5 -4 -9 -1 -9 4 0 6 -15 11 -34
11 -19 0 -36 4 -38 9 -1 6 -18 13 -36 16 -26 4 -32 3 -26 -7 6 -10 5 -10 -8 0
-9 7 -22 11 -29 10 -8 -2 -13 2 -12 8 1 6 -9 10 -22 8 -14 -1 -25 3 -25 9 0 8
-3 7 -9 -2 -6 -10 -10 -10 -16 -1 -6 9 -10 9 -16 -1 -8 -12 -11 -11 -19 1 -9
13 -10 13 -10 0 0 -9 -3 -11 -8 -5 -10 14 -32 17 -32 4 0 -8 -6 -7 -17 2 -15
12 -16 12 -8 -1 5 -10 1 -9 -13 3 -11 11 -26 16 -31 12 -6 -3 -11 -1 -11 6 0
9 -3 9 -14 0 -11 -9 -15 -9 -18 0 -3 9 -9 9 -26 0 -12 -6 -22 -8 -22 -3 0 11
-53 9 -62 -3 -5 -6 -8 -6 -8 2 0 14 -39 6 -61 -13 -9 -8 -19 -11 -23 -7 -12
12 -36 12 -36 0 0 -7 -5 -5 -10 3 -8 12 -10 12 -10 1 0 -10 -3 -11 -14 -2 -10
8 -16 9 -21 1 -3 -5 -13 -10 -21 -10 -10 0 -12 5 -8 13 6 9 4 9 -8 -1 -12 -9
-18 -10 -23 -2 -5 8 -11 7 -22 -2 -19 -16 -17 -16 -36 0 -13 11 -17 10 -26 -6
-8 -16 -22 -19 -78 -20 -111 0 -124 -2 -119 -11 4 -5 -2 -8 -11 -7 -10 2 -30
-1 -46 -5 -16 -5 -25 -4 -22 2 4 5 1 9 -4 9 -6 0 -11 -3 -11 -7 0 -10 -74 -8
-90 2 -6 4 -9 1 -8 -7 2 -9 -9 -13 -38 -13 -33 0 -40 -3 -36 -15 5 -13 3 -13
-11 -1 -14 11 -17 11 -17 0 0 -11 -2 -11 -10 1 -9 13 -10 13 -10 0 0 -9 -3
-11 -8 -5 -10 16 -54 17 -45 2 5 -9 3 -9 -8 0 -12 10 -18 10 -29 0 -10 -9 -11
-9 -6 1 4 7 1 12 -8 12 -9 0 -16 -6 -16 -12 0 -8 -3 -9 -8 -3 -11 15 -42 18
-42 3 0 -10 -3 -9 -9 1 -8 13 -12 13 -27 0 -11 -9 -15 -9 -10 -1 4 6 3 12 -1
12 -5 0 -15 -6 -22 -12 -8 -8 -11 -8 -8 -2 4 7 -3 12 -18 12 -16 0 -22 -5 -18
-12 4 -6 -1 -5 -10 2 -9 8 -21 11 -27 7 -5 -3 -10 0 -10 7 0 9 -3 9 -10 -2 -6
-9 -10 -11 -10 -3 0 7 -7 10 -17 6 -10 -4 -14 -2 -10 4 4 6 -2 13 -13 16 -14
4 -20 0 -20 -11 0 -13 -3 -12 -15 4 -10 13 -14 14 -15 5 0 -11 -3 -11 -15 -1
-10 9 -15 9 -15 1 0 -6 -5 -11 -11 -11 -5 0 -8 4 -4 10 3 5 -7 8 -25 5 -16 -2
-33 1 -36 7 -5 7 -2 8 7 3 8 -5 11 -4 6 0 -11 12 -60 12 -69 0 -5 -7 -8 -6 -8
1 0 5 -13 9 -30 8 -17 -1 -30 3 -30 9 0 8 -3 7 -9 -1 -6 -11 -10 -10 -15 3 -3
10 -12 15 -21 11 -8 -3 -17 -1 -21 5 -4 7 -10 7 -18 0 -9 -7 -16 -7 -23 0 -8
8 -13 8 -17 0 -5 -7 -14 -4 -28 9 -17 15 -25 17 -42 8 -12 -6 -18 -7 -14 -3
13 14 -16 34 -34 24 -11 -6 -18 -6 -18 0 0 5 -7 12 -16 15 -8 3 -12 2 -9 -4 8
-13 -1 -13 -27 1 -13 7 -18 7 -14 1 3 -6 1 -14 -5 -18 -8 -4 -9 -3 -5 4 4 7 1
12 -8 12 -9 0 -16 5 -16 11 0 5 5 7 12 3 6 -4 8 -3 4 4 -9 15 -523 15 -532 0z
m-964 -1648 c0 -5 -2 -10 -4 -10 -3 0 -8 5 -11 10 -3 6 -1 10 4 10 6 0 11 -4
11 -10z m1880 -2856 c0 -8 -19 -13 -24 -6 -3 5 1 9 9 9 8 0 15 -2 15 -3z m64
-20 c26 4 35 2 30 -6 -5 -8 -2 -9 9 -5 10 3 17 2 17 -2 0 -5 11 -8 25 -7 13 2
22 -1 19 -5 -3 -5 5 -9 18 -9 18 0 20 -2 8 -10 -9 -6 -10 -10 -3 -10 6 0 15 5
18 10 5 8 11 7 21 -1 11 -9 14 -9 14 0 0 7 5 9 10 6 6 -4 7 -11 4 -17 -5 -7
-2 -8 6 -3 7 4 15 4 19 -1 3 -5 17 -18 31 -29 23 -19 24 -19 10 -1 -12 16 -12
18 -1 11 24 -14 63 -15 58 -1 -3 7 1 13 9 13 7 0 11 -4 9 -8 -3 -4 2 -10 11
-13 10 -4 13 -2 7 7 -4 6 6 4 21 -7 28 -18 29 -18 23 0 -7 18 -6 18 8 0 14
-18 20 -12 17 15 -1 4 8 5 18 2 11 -3 20 0 20 6 0 6 9 11 21 11 12 0 17 4 13
11 -4 7 1 7 16 -1 18 -9 21 -9 15 0 -6 10 -1 12 19 8 14 -3 26 -1 26 3 0 5 7
6 15 3 8 -4 15 -1 15 6 0 10 3 10 14 1 10 -9 16 -9 21 -1 4 6 13 9 21 6 9 -3
14 1 15 12 0 12 2 13 6 3 5 -11 7 -11 14 0 6 10 9 11 9 2 0 -7 7 -13 16 -13 8
0 12 5 9 10 -3 6 -1 10 4 10 6 0 11 -4 11 -9 0 -10 19 -9 38 2 7 5 12 3 12 -3
0 -8 6 -7 21 1 15 8 19 8 15 0 -4 -6 0 -11 8 -11 9 0 16 -6 16 -12 0 -10 3 -9
9 1 6 9 11 10 15 2 4 -6 13 -11 19 -11 7 0 6 4 -3 10 -9 6 -10 10 -3 10 6 0
15 -4 18 -10 3 -5 15 -15 27 -21 15 -8 19 -8 14 0 -4 6 -2 11 3 11 6 0 11 -7
11 -15 0 -9 6 -12 15 -9 19 8 47 -14 38 -29 -4 -6 0 -8 10 -4 11 4 17 1 17 -9
0 -8 5 -12 10 -9 6 3 10 -1 10 -11 0 -14 2 -15 17 -3 11 10 14 10 9 2 -7 -12
5 -18 27 -14 5 1 6 -3 2 -9 -3 -6 -11 -7 -17 -4 -7 4 -8 2 -4 -4 4 -7 15 -12
26 -12 17 0 35 -25 31 -44 -1 -5 6 -3 15 5 12 9 15 9 10 2 -4 -8 -1 -13 9 -13
9 0 13 -4 10 -10 -3 -5 1 -10 10 -10 9 0 13 -4 10 -10 -3 -5 1 -10 9 -10 8 0
25 -14 37 -31 16 -23 24 -28 30 -17 6 9 9 6 9 -11 0 -19 4 -22 21 -18 12 3 19
3 16 0 -7 -6 30 -43 42 -43 5 0 13 -9 16 -21 5 -16 10 -18 21 -8 13 10 18 6
16 -12 -1 -4 8 -4 20 -1 16 4 19 2 13 -9 -7 -12 -6 -12 7 -1 10 8 19 9 22 3 4
-5 2 -12 -4 -16 -7 -4 -7 -12 0 -26 8 -13 7 -19 0 -19 -6 0 -4 -7 4 -16 12
-11 13 -20 6 -33 -5 -10 -6 -22 -2 -26 4 -5 1 -4 -7 0 -11 6 -13 4 -8 -8 3 -9
2 -16 -3 -14 -5 1 -16 -7 -25 -18 -9 -11 -13 -14 -9 -6 5 10 3 12 -5 7 -7 -5
-10 -14 -7 -22 4 -11 2 -12 -14 -4 -13 7 -21 7 -26 -2 -4 -6 -3 -8 4 -4 6 3
13 2 16 -3 7 -10 -13 -9 -30 2 -7 4 -17 1 -23 -6 -8 -11 6 -13 73 -14 69 -1
87 -4 103 -20 11 -11 17 -25 15 -31 -5 -15 14 -16 21 -2 3 6 4 5 3 -2 -2 -7 1
-21 6 -32 7 -14 7 -16 -2 -11 -9 6 -9 2 0 -16 10 -18 10 -24 1 -27 -8 -3 -6
-9 6 -18 15 -12 15 -13 1 -8 -13 4 -15 1 -11 -15 3 -12 10 -24 15 -27 5 -3 2
-14 -7 -24 -12 -14 -13 -20 -4 -26 8 -5 10 -3 4 6 -6 9 -4 11 4 5 9 -5 10 -10
2 -18 -6 -6 -11 -27 -11 -47 0 -26 -3 -31 -10 -20 -9 13 -10 13 -11 0 0 -8 -2
-25 -3 -38 -2 -13 1 -25 6 -28 4 -3 8 -11 8 -17 0 -7 -4 -6 -11 3 -8 12 -10 9
-6 -12 2 -15 0 -25 -4 -22 -5 3 -9 -6 -9 -20 0 -14 -5 -28 -12 -32 -7 -5 -8
-3 -3 6 5 9 4 11 -3 6 -7 -4 -12 -15 -13 -24 0 -11 -2 -13 -6 -4 -4 10 -9 8
-21 -5 -10 -10 -26 -25 -36 -33 -18 -13 -19 -13 -11 0 8 13 6 13 -8 2 -9 -8
-21 -11 -27 -7 -5 3 -10 1 -10 -4 0 -6 -5 -11 -11 -11 -5 0 -7 6 -4 13 4 6 0
4 -9 -7 -8 -10 -19 -15 -25 -11 -6 3 -11 1 -11 -6 0 -9 -3 -9 -14 0 -11 9 -15
9 -20 -1 -5 -10 -7 -10 -12 1 -5 10 -8 11 -14 1 -5 -7 -20 -14 -36 -16 -15 -2
-31 -9 -35 -16 -7 -10 -9 -10 -9 1 0 11 -4 10 -16 -5 -8 -10 -13 -13 -9 -6 3
6 1 12 -4 12 -6 0 -11 -5 -11 -11 0 -6 -7 -9 -15 -6 -8 4 -17 2 -21 -4 -3 -6
-12 -8 -19 -5 -8 3 -15 0 -17 -6 -5 -14 -75 -20 -83 -7 -4 5 -11 7 -16 3 -6
-4 -6 -10 0 -18 8 -9 7 -13 -4 -13 -8 0 -15 5 -15 11 0 6 -7 2 -15 -8 -11 -15
-15 -16 -16 -5 0 8 -2 9 -5 3 -3 -7 -14 -9 -26 -6 -12 3 -19 1 -15 -4 3 -5 -3
-10 -13 -10 -11 0 -16 5 -12 11 4 6 0 3 -9 -7 -9 -9 -19 -14 -23 -11 -3 3 -13
0 -23 -8 -11 -9 -14 -10 -9 -2 5 9 2 11 -8 7 -9 -3 -13 -11 -10 -16 4 -6 -3
-5 -15 1 -18 10 -20 9 -14 -5 4 -12 3 -15 -6 -10 -7 5 -21 0 -32 -10 -10 -9
-19 -14 -19 -9 0 4 -7 2 -15 -5 -13 -11 -15 -10 -9 6 5 18 5 18 -10 0 -9 -11
-16 -14 -16 -8 0 7 -5 12 -11 12 -5 0 -8 -4 -5 -9 9 -14 -25 -23 -40 -10 -12
9 -13 9 -9 -4 4 -8 2 -18 -4 -22 -6 -3 -11 0 -11 7 0 9 -3 9 -10 -2 -11 -18
-64 -25 -53 -7 4 7 0 6 -10 -2 -9 -7 -14 -18 -10 -24 3 -6 1 -7 -6 -3 -6 4
-19 2 -28 -6 -12 -9 -15 -9 -9 0 8 14 -6 16 -20 3 -16 -16 -103 -19 -115 -4
-10 11 -15 11 -27 1 -13 -10 -14 -10 -8 0 4 7 2 12 -5 12 -7 0 -21 8 -32 18
-11 9 -17 11 -13 5 4 -7 3 -13 -2 -13 -6 0 -12 7 -16 15 -3 8 -12 12 -21 9 -9
-4 -15 -1 -15 7 0 11 -3 11 -10 -1 -7 -11 -10 -11 -10 -2 0 9 -5 10 -17 3 -13
-7 -23 -5 -37 7 -11 9 -17 12 -13 7 3 -6 -3 -11 -13 -11 -14 0 -16 3 -8 13 8
10 7 12 -6 7 -9 -3 -23 -1 -31 6 -8 6 -19 9 -24 6 -5 -4 -13 -1 -17 5 -5 8 -3
9 7 4 8 -5 10 -4 6 0 -12 14 -38 15 -30 2 5 -9 3 -9 -8 -1 -8 6 -22 10 -31 9
-11 -2 -15 2 -11 12 5 13 3 13 -15 4 -21 -11 -27 -8 -23 13 1 5 -4 4 -12 -3
-12 -9 -16 -8 -21 5 -5 14 -9 14 -23 3 -12 -10 -14 -10 -9 -1 5 8 -2 12 -24
12 -17 0 -29 4 -26 8 3 5 -8 8 -24 7 -16 -1 -28 3 -27 8 1 5 -4 12 -12 15 -9
3 -11 0 -7 -9 4 -8 -2 -3 -13 10 -19 21 -21 21 -22 5 0 -18 -1 -17 -9 1 -6 13
-9 15 -9 5 -1 -13 -2 -13 -11 0 -5 8 -10 11 -10 6 0 -5 -7 -3 -15 4 -12 10
-15 10 -16 -1 0 -10 -2 -10 -5 -2 -3 7 -13 9 -22 6 -15 -6 -16 -5 -2 12 14 17
14 18 -6 7 -16 -9 -26 -8 -44 5 -13 9 -20 12 -17 6 9 -14 -20 -10 -34 4 -6 6
-18 9 -27 6 -10 -4 -13 -2 -8 5 4 7 1 12 -9 12 -10 0 -14 -5 -10 -12 4 -7 0
-5 -8 5 -16 20 -32 23 -21 5 6 -9 3 -9 -9 0 -9 8 -21 11 -27 7 -5 -3 -10 1
-10 9 0 8 -5 18 -12 22 -7 4 -8 3 -4 -4 4 -7 2 -12 -3 -12 -6 0 -11 6 -11 13
0 8 -4 7 -10 -3 -6 -10 -10 -11 -10 -2 0 6 -9 12 -21 12 -12 0 -17 4 -13 11 4
8 0 9 -15 4 -13 -4 -21 -2 -21 5 0 6 -4 8 -10 5 -5 -3 -10 -1 -10 6 0 9 -4 9
-15 -1 -12 -10 -13 -8 -10 10 3 14 0 20 -8 17 -19 -7 -49 13 -43 28 3 10 0 12
-11 8 -13 -5 -15 -2 -10 12 7 16 5 16 -9 4 -16 -13 -16 -12 0 19 9 17 12 32 6
32 -5 0 -10 -5 -10 -12 0 -6 -3 -9 -6 -6 -3 4 0 16 6 28 8 15 8 20 1 16 -10
-6 -16 13 -12 37 1 5 -3 6 -9 2 -6 -3 -7 -11 -4 -17 4 -7 2 -8 -5 -4 -6 4 -9
12 -6 17 4 5 2 9 -4 9 -6 0 -7 8 -4 18 6 14 4 15 -9 4 -13 -10 -15 -9 -15 5 0
56 -3 68 -14 53 -9 -12 -9 -11 -4 5 5 11 8 32 9 46 1 17 6 25 13 22 7 -3 13 0
13 6 0 6 -6 11 -12 11 -8 1 -6 6 5 14 19 15 24 31 5 20 -7 -4 -8 -3 -4 5 4 6
12 9 17 6 5 -4 9 1 9 9 0 8 5 18 12 22 7 5 8 3 3 -6 -5 -9 -4 -11 4 -6 9 6 9
11 0 22 -10 12 -9 13 6 8 13 -5 16 -4 11 4 -4 7 -1 12 8 12 9 0 16 5 16 11 0
5 -5 7 -12 3 -7 -4 -8 -3 -4 5 5 7 12 9 19 3 7 -4 26 -9 42 -10 17 -1 32 -7
33 -13 3 -6 10 -5 20 3 9 7 13 8 9 2 -3 -6 0 -11 8 -11 8 0 12 4 9 9 -3 4 0 8
5 8 6 0 11 -6 11 -13 0 -7 9 -13 19 -13 11 0 18 4 15 7 -2 4 0 10 5 13 5 4 12
2 15 -2 4 -7 39 -8 56 -2 3 1 9 2 13 1 5 -1 6 3 2 9 -5 8 -12 7 -23 -2 -15
-12 -16 -11 -3 5 8 10 21 15 29 12 12 -4 13 -3 2 10 -14 17 -40 20 -40 4 0 -6
-7 -9 -15 -5 -10 3 -15 -1 -15 -11 0 -14 -2 -14 -16 3 -8 10 -13 14 -10 8 3
-7 -1 -15 -10 -18 -11 -4 -18 1 -21 14 -3 11 -9 17 -14 14 -5 -3 -6 -11 -2
-17 4 -7 0 -6 -10 2 -9 7 -17 10 -17 6 0 -5 -8 1 -18 13 -14 16 -22 18 -30 10
-9 -9 -12 -9 -12 1 0 7 -5 9 -12 5 -10 -6 -10 -5 0 8 10 12 10 17 -1 27 -17
14 -16 59 2 71 8 4 10 13 7 19 -4 6 -2 11 5 11 8 0 7 5 -2 17 -8 9 -9 14 -3
10 7 -4 18 1 25 10 10 12 10 14 2 9 -7 -4 -13 -2 -13 3 0 6 7 11 16 11 8 0 13
4 9 9 -3 6 3 14 12 20 13 8 14 10 4 11 -12 0 -12 3 -3 12 7 7 12 20 12 31 0
10 4 16 9 13 5 -3 12 5 15 18 3 13 13 27 22 30 12 5 14 3 8 -7 -5 -7 -2 -5 7
5 9 9 19 14 23 11 4 -4 13 3 22 15 8 12 21 22 29 22 8 0 19 8 24 18 6 9 11 13
11 8 0 -6 7 -1 16 10 8 10 12 13 9 6 -6 -11 -3 -12 14 -3 11 7 21 14 21 17 0
3 -5 2 -12 -2 -7 -4 -8 -3 -4 5 6 9 11 9 22 0 11 -9 14 -9 14 1 0 7 7 10 14 7
11 -4 13 -1 9 10 -4 10 -2 14 4 10 16 -10 44 3 36 17 -4 6 2 4 12 -4 10 -8 16
-10 12 -3 -6 10 46 38 66 34 4 0 7 6 7 14 0 8 9 15 20 15 11 0 20 6 20 13 0 8
4 7 10 -3 8 -13 10 -13 10 2 0 12 5 15 17 11 10 -4 14 -2 10 4 -7 11 22 11 40
0 6 -4 17 1 24 11 13 15 12 16 -3 3 -10 -7 -18 -9 -18 -3 0 15 18 18 117 18
56 -1 93 3 93 9 0 6 4 4 8 -3 5 -8 22 -11 46 -8z m5264 -121 c-12 -15 -22 -18
-14 -4 4 5 0 11 -6 14 -7 3 -3 4 9 4 17 -1 19 -4 11 -14z m-9418 -443 c0 -5
-2 -10 -4 -10 -3 0 -8 5 -11 10 -3 6 -1 10 4 10 6 0 11 -4 11 -10z m850 -2004
c0 -2 -8 -10 -17 -17 -16 -13 -17 -12 -4 4 13 16 21 21 21 13z"/>
<path d="M5695 5390 c3 -5 8 -10 11 -10 2 0 4 5 4 10 0 6 -5 10 -11 10 -5 0
-7 -4 -4 -10z"/>
<path d="M5760 4170 c-9 -6 -10 -10 -3 -10 6 0 15 5 18 10 8 12 4 12 -15 0z"/>
<path d="M5407 4083 c-4 -3 -7 -11 -7 -17 0 -6 5 -5 12 2 6 6 9 14 7 17 -3 3
-9 2 -12 -2z"/>
<path d="M5230 4020 c0 -5 5 -10 10 -10 6 0 10 5 10 10 0 6 -4 10 -10 10 -5 0
-10 -4 -10 -10z"/>
<path d="M9966 5398 c3 -5 10 -6 15 -3 13 9 11 12 -6 12 -8 0 -12 -4 -9 -9z"/>
<path d="M1180 3380 c0 -5 5 -10 11 -10 5 0 7 5 4 10 -3 6 -8 10 -11 10 -2 0
-4 -4 -4 -10z"/>
<path d="M2381 502 c0 -8 -6 -10 -13 -6 -9 5 -9 2 1 -9 7 -9 9 -17 3 -17 -11
0 -4 -38 11 -58 7 -9 5 -11 -9 -5 -17 6 -18 5 -4 -12 9 -11 10 -16 3 -11 -8 4
-13 2 -13 -4 0 -6 -5 -8 -11 -4 -8 5 -8 1 0 -14 9 -17 8 -23 -6 -31 -10 -6
-12 -11 -6 -11 9 0 12 -20 10 -69 -1 -38 -4 -69 -7 -69 -25 2 -28 -3 -17 -27
7 -14 17 -25 24 -25 7 0 17 -8 22 -17 6 -10 11 -13 11 -6 0 7 9 10 21 8 12 -3
19 -2 16 1 -3 3 4 15 15 26 16 16 18 22 7 29 -9 5 -10 9 -2 9 6 0 10 8 9 18
-2 9 2 20 8 24 7 5 4 8 -6 8 -21 0 -23 11 -6 28 7 7 8 12 3 12 -5 0 0 7 11 16
10 8 12 13 4 9 -12 -5 -11 -4 1 7 11 9 14 20 8 35 -6 15 -2 28 12 44 11 13 17
29 14 37 -3 7 -5 19 -5 26 0 15 -42 16 -52 1 -5 -6 -8 -5 -8 2 0 7 -7 10 -17
6 -11 -4 -14 -3 -9 5 4 7 3 12 -3 12 -5 0 -12 10 -14 23 -2 12 -5 16 -6 9z"/>
</g>
</svg>
